<svg id="Layer_1" data-name="Layer 1" xmlns="http://www.w3.org/2000/svg" xmlns:xlink="http://www.w3.org/1999/xlink" viewBox="0 0 499.4 516.26"><defs><style>.cls-1{fill:none;}.cls-2{clip-path:url(#clip-path);}.cls-3{fill:#db362f;}.cls-10,.cls-3,.cls-8,.cls-9{fill-rule:evenodd;}.cls-4{clip-path:url(#clip-path-2);}.cls-5{fill:url(#radial-gradient);}.cls-6{clip-path:url(#clip-path-3);}.cls-7{fill:url(#linear-gradient);}.cls-8{fill:#fff;}.cls-9{fill:#b8b69e;}.cls-10{fill:#ed1c24;}.cls-11{clip-path:url(#clip-path-5);}.cls-12{fill:url(#linear-gradient-2);}.cls-13{clip-path:url(#clip-path-6);}.cls-14{fill:url(#linear-gradient-3);}.cls-15{clip-path:url(#clip-path-7);}.cls-16{fill:url(#linear-gradient-4);}.cls-17{clip-path:url(#clip-path-8);}.cls-18{fill:url(#linear-gradient-5);}.cls-19{clip-path:url(#clip-path-9);}.cls-20{fill:url(#linear-gradient-6);}.cls-21{clip-path:url(#clip-path-10);}.cls-22{fill:url(#linear-gradient-7);}.cls-23{clip-path:url(#clip-path-11);}.cls-24{fill:url(#linear-gradient-8);}.cls-25{clip-path:url(#clip-path-12);}.cls-26{fill:url(#linear-gradient-9);}.cls-27{clip-path:url(#clip-path-13);}.cls-28{fill:url(#linear-gradient-10);}</style><clipPath id="clip-path"><rect class="cls-1" x="-168.91" y="-36.47" width="841.89" height="595.28"/></clipPath><clipPath id="clip-path-2"><path class="cls-1" d="M136.72,237.57A115.68,115.68,0,1,0,252.4,121.9,115.68,115.68,0,0,0,136.72,237.57"/></clipPath><radialGradient id="radial-gradient" cx="-168.91" cy="558.81" r="1" gradientTransform="matrix(0, 163.59, 163.59, 0, -91162.4, 27869.95)" gradientUnits="userSpaceOnUse"><stop offset="0" stop-color="#e1694c"/><stop offset="1" stop-color="#c92623"/></radialGradient><clipPath id="clip-path-3"><path class="cls-1" d="M138.63,146.47l0,1,.35-.4-.15-.73-.13-.5ZM179.27,129q-2.42,1.49-4.77,3.08,2.35-1.59,4.77-3.08m.91-.56-.91.56.91-.56m-20.35-4.86q-5,3.72-9.6,7.85,4.64-4.12,9.6-7.85m54.42-27-.6.76-.64.77-.7.79c-.26.28-.52.56-.79.83s-.56.57-.84.84-.63.59-.94.87-.73.64-1.1,1-.82.67-1.24,1-1,.73-1.51,1.09-1.26.84-1.91,1.24c-.95.58-1.92,1.13-2.91,1.64a66.3,66.3,0,0,1-10.47,4.23c-1.28.4-2.56.78-3.84,1.13-1,.28-1.94.53-2.9.78l-2.5.64-2.33.58-2.2.55-2.11.54-.43.11-1.77.51c-.81.25-1.62.52-2.43.82-1,.35-1.92.74-2.87,1.15q-3.78,2.51-7.39,5.22,3.61-2.72,7.38-5.22c-1.28.57-2.54,1.19-3.79,1.87A48.08,48.08,0,0,0,150.89,130c-.91,1-1.78,2-2.61,3.14.55-.51,1.11-1,1.67-1.51l-1.67,1.52c-.59.78-1.16,1.58-1.71,2.41s-.9,1.39-1.32,2.11-.71,1.25-1,1.89-.59,1.15-.86,1.73-.49,1.08-.73,1.64l-.23.56c1-1.24,2-2.38,3-3.44a61.35,61.35,0,0,1,7.89-7.4,35.9,35.9,0,0,1,4.38-2.9c.86-.48,1.71-.91,2.55-1.28.68-.3,1.35-.56,2-.8s1.17-.41,1.75-.58a146.46,146.46,0,0,1,14.1-9.21,146.46,146.46,0,0,0-14.1,9.21c.54-.16,1.07-.3,1.61-.43s1-.24,1.49-.34,1-.2,1.47-.29l1.28-.24v.07l-.08.78-.06.77,0,.74v1.45l0,.71,0,.71,0,.7.06.69.07.68.09.68.09.67.1.66.11.66.11.65.13.64.13.65.14.64h0l.14.64.15.63.16.63.16.62.17.62.17.62.18.62,0,.08,1.34-1.13a124,124,0,0,1,11.29-8.29q3-2,6.14-3.75l-.15-.27-.25-.54c-.08-.18-.16-.37-.23-.55s-.13-.38-.19-.57-.11-.39-.16-.59-.09-.4-.13-.61l-.09-.62c0-.21,0-.43,0-.64s0-.44,0-.66l0-.67,0-.69.08-.71h0l.12-.72.14-.73.1-.47a47.05,47.05,0,0,0,5.31-2.69c1-.6,2-1.23,2.9-1.87.66-.46,1.28-.93,1.89-1.4s1-.8,1.49-1.2.84-.72,1.25-1.09.73-.67,1.08-1,.67-.65,1-1,.59-.61.87-.91l.8-.89.75-.86.69-.84.64-.81.6-.8.58-.79.54-.78.5-.75.48-.75.45-.73.43-.74.41-.72.39-.72.36-.7.33-.7.32-.68.29-.69,0-.05Zm-42.39-4.46c-4.3,2-5.73,8-3.2,13.5s8.09,8.3,12.37,6.31,5.74-8.05,3.2-13.53c-2-4.27-5.81-6.93-9.43-6.93a6.88,6.88,0,0,0-2.94.65"/></clipPath><linearGradient id="linear-gradient" x1="-168.93" y1="558.84" x2="-167.93" y2="558.84" gradientTransform="matrix(0, 31.61, 31.61, 0, -17485.87, 5445.53)" gradientUnits="userSpaceOnUse"><stop offset="0" stop-color="#9f9d82"/><stop offset="1" stop-color="#fff"/></linearGradient><clipPath id="clip-path-5"><path class="cls-1" d="M106.81,230.74l.52.81,0-.54-.55-.49-.39-.33Zm-5.1-63.56c-2.31,4.14.08,9.87,5.34,12.81s11.43,2,13.72-2.16-.09-9.89-5.36-12.83a13,13,0,0,0-6.27-1.69c-3.2,0-6,1.35-7.43,3.87m8.77,32.55q-1.82,5.94-3.14,12,1.32-6.06,3.14-12m18.92-7-.09.21c-.52,1.29-1,2.59-1.52,3.9a.14.14,0,0,1,0,.06l-.08.21c0,.07,0,.13-.07.2a.36.36,0,0,1,0,.09,2.31,2.31,0,0,1-.1.28v0c0,.11-.07.22-.11.33,0-.11.08-.22.11-.33v0a2.31,2.31,0,0,0,.1-.28.36.36,0,0,0,0-.09c0-.07,0-.13.07-.2l.08-.21a.14.14,0,0,0,0-.06c.49-1.31,1-2.61,1.52-3.9l.09-.21h0m.4-1c-.13.33-.27.65-.4,1,.13-.33.27-.65.4-1m8.83-45.83,0,1-.07,1-.1,1.05c0,.38-.09.76-.15,1.13s-.12.79-.19,1.18-.16.84-.25,1.26-.21.94-.33,1.4-.27,1-.42,1.54-.38,1.18-.58,1.76-.52,1.43-.81,2.13c-.43,1-.9,2-1.4,3a66.09,66.09,0,0,1-6,9.58c-.8,1.08-1.62,2.13-2.44,3.17-.62.79-1.26,1.57-1.89,2.34l-1.65,2-1.54,1.84L119.33,183,118,184.67l-.28.34c-.39.47-.77,1-1.14,1.45-.51.68-1,1.38-1.49,2.09s-1.12,1.73-1.64,2.62q-1.59,4.25-2.91,8.56,1.32-4.32,2.91-8.56-1.07,1.82-2,3.75a48.05,48.05,0,0,0-4.36,15.3q-.23,2-.27,4.08c.09-.45.19-.9.28-1.34l.18-.86-.18.86c-.09.45-.19.9-.28,1.35,0,1,0,2,0,2.95,0,.83.09,1.65.17,2.48s.17,1.43.27,2.15.2,1.27.33,1.9.23,1.17.37,1.75l.14.59c.11-1.6.25-3.12.41-4.54a60.87,60.87,0,0,1,2-10.62,35.41,35.41,0,0,1,1.84-4.93c.41-.9.85-1.74,1.31-2.53.37-.64.76-1.25,1.17-1.84s.71-1,1.08-1.5a145.44,145.44,0,0,1,6-15.74,147.56,147.56,0,0,0-6,15.74c.34-.44.69-.87,1-1.29s.67-.78,1-1.16.67-.73,1-1.09l.91-.95,0,.06.39.69.41.65.4.62.43.6.42.58.44.56.44.55.45.53.46.53.46.51.46.49.47.49.47.48.48.47.47.45.48.45.49.45.49.44h0l.49.43.49.42.5.42.5.41.5.4.5.4.5.39.07,0,.42-1.69a123.32,123.32,0,0,1,4.27-13.35q1.27-3.36,2.76-6.64l-.28-.13-.53-.29h0c-.17-.1-.34-.2-.5-.31l-.49-.35c-.17-.12-.32-.25-.48-.38s-.31-.27-.46-.42-.29-.29-.44-.45l-.42-.49c-.13-.17-.27-.34-.4-.52l-.38-.56-.37-.58-.34-.62h0l-.34-.65-.31-.68-.19-.43a48.33,48.33,0,0,0,2.71-5.3c.47-1.09.88-2.16,1.25-3.22.26-.76.49-1.5.71-2.25s.35-1.23.5-1.84.25-1.08.36-1.62.2-1,.28-1.45.16-.92.23-1.37.11-.83.16-1.25l.13-1.19.1-1.14.06-1.08,0-1,0-1v-1l0-.95,0-.9-.06-.88-.06-.87-.09-.84-.09-.83-.11-.81-.12-.77-.14-.77-.14-.74c-.09-.37-.15-.62-.18-.72v0Z"/></clipPath><linearGradient id="linear-gradient-2" x1="-168.92" y1="558.8" x2="-167.92" y2="558.8" gradientTransform="matrix(0, 35.82, 35.82, 0, -19898.7, 6226.46)" xlink:href="#linear-gradient"/><clipPath id="clip-path-6"><path class="cls-1" d="M130.59,317.62l.9.35-.27-.46-.74-.08-.51,0ZM98.91,259.38c-6,.73-10.37,5.13-9.8,9.82S95,277.14,101,276.41s10.4-5.12,9.83-9.81c-.51-4.26-4.93-7.32-10.22-7.32a13.44,13.44,0,0,0-1.66.1m16.43,31c1.31,3.79,2.75,7.53,4.35,11.2l.15.36-.15-.36c-1.6-3.67-3-7.41-4.35-11.2m11.17-16.81c.45,1.84.93,3.67,1.46,5.48-.53-1.81-1-3.64-1.46-5.48h0m-.25-1c.08.34.16.69.25,1-.09-.34-.17-.69-.25-1m-19.8-42.27.54.81.53.85.54.91c.18.34.37.67.54,1s.37.71.54,1.07.37.77.54,1.16.38.89.56,1.33.38,1,.56,1.49.39,1.18.57,1.77.41,1.46.59,2.2c.26,1.09.48,2.18.66,3.28a65.79,65.79,0,0,1,.78,11.27c0,1.34,0,2.67-.1,4,0,1-.1,2-.16,3L113,267l-.17,2.39-.16,2.27-.14,2.17,0,.44c0,.61-.06,1.22-.07,1.84,0,.85,0,1.71,0,2.57,0,1,.11,2.06.21,3.09q1.17,4.22,2.58,8.36l.09.27-.09-.27q-1.41-4.14-2.58-8.36c.14,1.39.34,2.79.6,4.19a48,48,0,0,0,5.47,14.94c.67,1.18,1.4,2.33,2.18,3.46l-.61-1.36c-.11-.23-.21-.46-.31-.69.1.23.2.46.31.69l.61,1.36q.84,1.21,1.77,2.37c.51.65,1,1.28,1.6,1.91s1,1.06,1.48,1.58l1.38,1.35c.43.4.87.8,1.33,1.19l.46.4c-.85-1.37-1.63-2.67-2.34-3.92a61.66,61.66,0,0,1-4.6-9.78,35.74,35.74,0,0,1-1.41-5.08c-.19-1-.33-1.9-.42-2.81-.08-.74-.12-1.46-.14-2.18s0-1.23,0-1.84a146.06,146.06,0,0,1-4.4-16.26,148.26,148.26,0,0,0,4.4,16.26c0-.56,0-1.11.09-1.66s.08-1,.13-1.53.11-1,.18-1.48l.17-1.3.07,0,.71.33.71.28.7.27.69.23.69.22.68.2.68.18.68.17.68.16.67.14.67.13.66.12.66.11.67.1.65.09.65.08.66.07.65.07h0l.65.06.65.05.65.05.64,0,.64,0,.64,0,.64,0h.08l-.65-1.62a125.48,125.48,0,0,1-4.4-13.3c-.62-2.32-1.17-4.65-1.67-7l-.3.06-.59.07c-.2,0-.4,0-.6.05h-.6l-.61,0-.61-.07-.62-.11-.63-.15c-.21-.05-.42-.12-.63-.19l-.64-.22-.64-.26-.64-.29h0l-.65-.32-.66-.37-.41-.23a46.2,46.2,0,0,0-.92-5.89c-.26-1.15-.55-2.26-.88-3.34-.23-.76-.48-1.5-.74-2.23s-.45-1.2-.69-1.78-.43-1-.65-1.53-.41-.9-.63-1.34-.41-.83-.62-1.24l-.6-1.1-.59-1-.6-1-.58-.92-.57-.86-.58-.81-.57-.8-.58-.75-.56-.71-.56-.68-.56-.66-.56-.64-.57-.61-.56-.59-.55-.56-.56-.54-.56-.51-.56-.48,0,0Z"/></clipPath><linearGradient id="linear-gradient-3" x1="-168.9" y1="558.84" x2="-167.9" y2="558.84" gradientTransform="matrix(35.23, 0, 0, -35.23, 6050.51, 19959.9)" xlink:href="#linear-gradient"/><clipPath id="clip-path-7"><path class="cls-1" d="M200.71,373.84l-.44.27.64-.19.93-.24-.5-.21ZM141,345.43c-4.41,4.1-5.38,10.25-2.15,13.7s9.41,3,13.83-1.12,5.39-10.26,2.18-13.72a7.58,7.58,0,0,0-5.67-2.31,12.28,12.28,0,0,0-8.19,3.45m31.51,15.42q5.08,3.56,10.44,6.7-5.36-3.14-10.44-6.7m-.85-20.16q2.18,1.83,4.41,3.57-2.24-1.74-4.41-3.57m-.81-.7.81.7-.81-.7M130,317.44l.91.34.93.37,1,.42,1,.49c.36.18.72.36,1.07.55l1.12.62,1.23.75c.45.28.89.58,1.33.88s1,.72,1.5,1.09,1.19.94,1.77,1.44c.85.72,1.67,1.48,2.46,2.26a65.37,65.37,0,0,1,7.26,8.65c.78,1.09,1.53,2.19,2.26,3.3.56.84,1.11,1.68,1.64,2.52l1.38,2.18,1.27,2,1.2,1.93,1.17,1.83.24.38c.33.51.67,1,1,1.53.49.69,1,1.38,1.53,2.06s1.29,1.6,2,2.37q3.54,2.82,7.24,5.41c-2.46-1.73-4.88-3.53-7.23-5.41.93,1.05,1.91,2.06,3,3a48.12,48.12,0,0,0,13.2,8.88c1.24.55,2.5,1.06,3.8,1.51l-1.08-.62-.87-.5.87.5,1.08.62c.93.32,1.87.62,2.82.88.8.22,1.6.42,2.42.6s1.41.29,2.12.41,1.27.2,1.91.28l1.78.19.61,0c-1.49-.6-2.89-1.2-4.2-1.79a62,62,0,0,1-9.47-5.21,36.85,36.85,0,0,1-4.12-3.28c-.72-.67-1.39-1.34-2-2s-.95-1.12-1.39-1.68-.74-1-1.09-1.49a147.2,147.2,0,0,1-13.12-10.57,147.08,147.08,0,0,0,13.12,10.56c-.32-.46-.62-.92-.91-1.39s-.53-.87-.79-1.31l-.73-1.3-.62-1.15.08,0,.77-.16.74-.18.72-.2.69-.22.69-.22.67-.24.66-.25.65-.27.64-.27.62-.28.62-.29.61-.29.59-.3.6-.31.58-.31.57-.32.58-.32.57-.33h0l.56-.34.56-.34.54-.34.55-.35.54-.35.53-.35.53-.36.07,0-1.49-.93a126.24,126.24,0,0,1-11.37-8.18q-2.79-2.26-5.46-4.68l-.21.22-.44.41h0l-.45.39c-.16.13-.32.24-.49.36s-.33.23-.5.33l-.54.31-.57.28-.6.25-.62.22-.64.19-.67.16-.69.14h0l-.72.12-.74.09-.47.05a46.59,46.59,0,0,0-4.21-4.22c-.88-.78-1.77-1.5-2.67-2.18-.64-.48-1.28-.94-1.91-1.37s-1.07-.71-1.6-1-1-.58-1.43-.85-.87-.49-1.29-.72l-1.24-.63-1.13-.55-1.09-.49-1.06-.44-1-.4-1-.36-.94-.32-.93-.3-.91-.28-.87-.24-.86-.22-.84-.21-.83-.18-.82-.17-.8-.14-.77-.13-.77-.1-.75-.09-.74-.06H130Z"/></clipPath><linearGradient id="linear-gradient-4" x1="-168.9" y1="558.81" x2="-167.9" y2="558.81" gradientTransform="matrix(32.14, 0, 0, -32.14, 5580.3, 18306.66)" xlink:href="#linear-gradient"/><clipPath id="clip-path-8"><path class="cls-1" d="M225.7,390.28c-1.15,5.92,1.68,11.46,6.32,12.36s9.36-3.13,10.52-9-1.66-11.47-6.29-12.38a6.66,6.66,0,0,0-1.33-.13c-4.19,0-8.16,3.83-9.22,9.19M291,377.52l-.3.68-.2.47.41-.52.61-.74Zm-18.33,6q-6.17.62-12.38.71,6.21-.09,12.38-.71m-24.92-15.1c1.89.14,3.78.25,5.67.31-1.89-.06-3.78-.17-5.67-.31m-1.06-.08,1.06.08-1.06-.08m-7.83-6.89-.11.59c-.05.19-.09.38-.15.58s-.11.38-.18.57-.13.38-.21.57a5.69,5.69,0,0,1-.26.56c-.09.19-.19.38-.29.56s-.22.37-.34.55a6.61,6.61,0,0,1-.37.55l-.41.53-.44.53-.48.52h0l-.52.52-.54.51-.36.31a47.45,47.45,0,0,0-5.88-.94c-1.17-.11-2.32-.17-3.45-.19-.79,0-1.58,0-2.35,0s-1.28,0-1.9.09-1.11.1-1.66.16-1,.11-1.46.18-.93.13-1.38.21l-1.23.22-1.18.25-1.11.26-1,.27-1,.28-1,.29-.93.31-.9.31-.84.31-.83.33-.8.33-.78.33-.76.35-.73.36-.7.35-.68.36-.66.37-.64.39,0,0,.08,0,.93-.26,1-.25,1-.23,1.11-.21,1.19-.18c.42-.06.85-.11,1.27-.15l1.44-.12c.53,0,1.06-.06,1.59-.07s1.24,0,1.86,0,1.52.06,2.27.12c1.12.09,2.23.22,3.32.38a66.06,66.06,0,0,1,11,2.74c1.27.42,2.53.87,3.77,1.33l2.81,1.08,2.39,1,2.23.89,2.11.85,2,.8.41.17c.57.21,1.15.43,1.73.63.8.27,1.62.53,2.45.76s2,.54,3,.76c2.91.12,5.83.17,8.73.13h0c-2.9,0-5.82,0-8.73-.13q2.06.45,4.17.72a48,48,0,0,0,15.91-.58c1.32-.28,2.64-.61,3.95-1l-.63.07-1.6.17,1.6-.17.64-.07c.94-.28,1.87-.6,2.8-.94.77-.29,1.54-.6,2.31-.94s1.31-.59,2-.92,1.14-.58,1.71-.89,1-.59,1.54-.9l.52-.31c-1.56.39-3,.72-4.44,1a61.17,61.17,0,0,1-10.73,1.35,35.08,35.08,0,0,1-5.26-.23c-1-.11-1.91-.27-2.8-.46-.73-.16-1.44-.34-2.12-.54s-1.18-.37-1.76-.57a144,144,0,0,1-16.46-.8l-.36,0,.36,0a146.18,146.18,0,0,0,16.46.8c-.53-.19-1-.38-1.56-.59s-.93-.39-1.4-.6-.91-.41-1.36-.63l-1.18-.56,0-.06.53-.58.49-.58.47-.59.44-.58.42-.59.4-.58.38-.59.37-.6.36-.6.34-.59.33-.6.32-.59.31-.59.3-.6.28-.6.28-.59.28-.6.26-.6h0l.26-.6.25-.6.24-.6.24-.61.23-.6.23-.6.21-.6,0-.07-1.74.12a126.08,126.08,0,0,1-14,.07c-2.39-.13-4.77-.32-7.16-.58Z"/></clipPath><linearGradient id="linear-gradient-5" x1="-168.91" y1="558.81" x2="-167.91" y2="558.81" gradientTransform="matrix(32.04, 0, 0, -32.04, 5652.5, 18284.09)" xlink:href="#linear-gradient"/><clipPath id="clip-path-9"><path class="cls-1" d="M323.76,363.28c-4.3,2-5.74,8.05-3.2,13.53s8.09,8.28,12.37,6.28,5.74-8,3.2-13.5c-2-4.29-5.81-6.95-9.44-6.95a6.79,6.79,0,0,0-2.93.64m1.77-17.1-.91.56.91-.56m29-2.43q-4.63,4.13-9.6,7.85,5-3.74,9.6-7.85m-24.27-.65q-2.35,1.59-4.76,3.08,2.4-1.49,4.76-3.08m29.11-8a61.29,61.29,0,0,1-7.88,7.4,36.11,36.11,0,0,1-4.39,2.91c-.86.48-1.71.9-2.54,1.27s-1.36.57-2,.81-1.16.4-1.75.57a145.32,145.32,0,0,1-14.1,9.22A145.32,145.32,0,0,0,340.8,348c-.54.16-1.07.31-1.61.44s-1,.24-1.48.34l-1.47.29-1.29.24v-.07l.09-.79.05-.76,0-.74,0-.74v-.71l0-.72,0-.7,0-.7-.07-.69-.07-.68-.08-.68-.1-.67-.09-.66-.12-.66-.11-.65-.12-.64-.14-.65-.13-.64h0l-.15-.64-.15-.63-.16-.63-.16-.63-.16-.62-.18-.62-.17-.61,0-.08-1.34,1.13a125.89,125.89,0,0,1-11.29,8.29q-3,2-6.13,3.75l.14.27.26.54c.08.18.15.36.22.55s.13.38.19.57.12.39.16.59.1.4.13.6.07.42.09.63,0,.42.05.64,0,.44,0,.66l0,.67-.05.69-.08.7h0l-.11.71-.14.74-.1.46a47.05,47.05,0,0,0-5.31,2.7c-1,.6-2,1.23-2.91,1.87-.65.46-1.28.92-1.89,1.4s-1,.79-1.48,1.2-.85.72-1.25,1.09-.73.67-1.08,1-.67.65-1,1-.59.61-.87.92l-.8.88-.75.87-.69.84-.64.81-.6.8-.58.79-.54.78-.5.75-.47.75-.46.73-.43.74-.41.72-.38.72-.36.7-.34.69-.32.69c-.15.35-.25.58-.28.68l0,.06.05-.06.6-.76.65-.77.7-.79c.26-.29.51-.56.78-.83l.85-.85.94-.87,1.09-.94c.41-.34.82-.67,1.24-1s1-.74,1.51-1.09,1.27-.85,1.91-1.24c1-.59,1.93-1.13,2.91-1.64a66,66,0,0,1,10.48-4.23c1.28-.4,2.55-.78,3.83-1.14l2.91-.78,2.49-.63,2.33-.58L328,360l2.1-.54.43-.12c.59-.15,1.18-.32,1.77-.5.81-.25,1.63-.52,2.43-.82,1-.35,1.92-.74,2.88-1.15q3.76-2.51,7.38-5.22-3.61,2.72-7.38,5.22c1.28-.57,2.55-1.19,3.8-1.87a48.41,48.41,0,0,0,12.52-9.82c.91-1,1.78-2.05,2.61-3.14l-.53.48c-.38.35-.75.69-1.14,1l1.14-1,.54-.49c.59-.78,1.16-1.58,1.7-2.41s.9-1.39,1.32-2.11.71-1.25,1-1.89.59-1.15.86-1.73.5-1.08.73-1.64l.23-.56c-1,1.23-2,2.38-3,3.43m6.46-6.95.16.72.12.5,0-.66.06-1Z"/></clipPath><linearGradient id="linear-gradient-6" x1="-168.92" y1="558.84" x2="-167.92" y2="558.84" gradientTransform="matrix(0, -33.65, -33.65, 0, 19135.4, -5315.94)" xlink:href="#linear-gradient"/><clipPath id="clip-path-10"><path class="cls-1" d="M384,297.32c-2.31,4.14.09,9.89,5.36,12.83s11.41,2,13.7-2.19-.07-9.86-5.34-12.8a12.94,12.94,0,0,0-6.29-1.7c-3.19,0-6,1.35-7.43,3.86m-8.62-14.86c-.14.32-.27.65-.41,1,.14-.33.27-.66.41-1m2-5.3c-.65,1.78-1.33,3.54-2,5.3.71-1.76,1.39-3.52,2-5.3m20-13.74q-1.33,6.06-3.15,12,1.81-5.93,3.15-12m-1.18-9.86a63,63,0,0,1-2,10.62,35.39,35.39,0,0,1-1.85,4.93c-.41.89-.85,1.73-1.31,2.52s-.76,1.26-1.16,1.85-.72,1-1.08,1.49a144.87,144.87,0,0,1-6,15.75,145.44,145.44,0,0,0,6-15.74c-.34.44-.68.87-1,1.29s-.66.78-1,1.15-.67.74-1,1.1l-.9,1,0-.07-.39-.68-.4-.65-.41-.62-.42-.6-.43-.58-.43-.56-.45-.55-.45-.53-.46-.53-.45-.51-.47-.5-.47-.48-.47-.48-.47-.47-.48-.46-.48-.44-.48-.45-.49-.44h0l-.5-.43-.49-.43-.5-.41-.5-.41-.49-.41-.51-.4-.5-.39-.06-.05-.43,1.7A125.51,125.51,0,0,1,368.5,282q-1.29,3.35-2.76,6.63l.28.14.52.29h0l.51.31c.17.11.33.23.49.35l.47.38a4.58,4.58,0,0,1,.46.42,6.25,6.25,0,0,1,.44.45l.42.49c.14.17.27.34.4.52l.38.55.37.59.35.62h0l.33.65.31.67.2.44a44.29,44.29,0,0,0-2.71,5.3c-.47,1.08-.89,2.16-1.25,3.22-.26.75-.5,1.5-.72,2.24s-.34,1.24-.49,1.85-.26,1.08-.37,1.62-.19,1-.28,1.45-.16.92-.22,1.37-.12.83-.17,1.24l-.13,1.19-.09,1.15-.07,1.08,0,1,0,1v1l0,1,0,.9.05.88.07.87.08.84.1.83.11.81.12.77.13.76.15.74c.08.38.14.63.17.73v0l0-1,.06-1,.11-1.06c0-.37.08-.75.14-1.12s.12-.79.19-1.18.16-.85.25-1.26.21-.94.33-1.4.27-1,.42-1.54.38-1.18.58-1.77.53-1.43.82-2.13c.43-1,.89-2,1.39-3a65.72,65.72,0,0,1,6-9.57c.79-1.08,1.61-2.13,2.43-3.17.63-.8,1.26-1.57,1.9-2.34l1.64-2L384,293.9l1.46-1.74,1.39-1.68.28-.34c.38-.48.76-1,1.13-1.45.52-.68,1-1.38,1.49-2.09.57-.86,1.12-1.73,1.64-2.63,1.06-2.82,2-5.68,2.92-8.55-.89,2.87-1.86,5.73-2.91,8.55.7-1.21,1.36-2.46,2-3.74a47.87,47.87,0,0,0,4.36-15.3q.22-2,.27-4.08c-.15.73-.3,1.47-.46,2.2.16-.73.31-1.47.46-2.2h0c0-1,0-2,0-2.95,0-.83-.09-1.65-.17-2.49s-.16-1.43-.27-2.14-.2-1.27-.32-1.9-.24-1.17-.37-1.75l-.15-.6c-.11,1.61-.24,3.12-.4,4.55m1.14-9.43.54.5.4.33-.38-.55-.51-.81Z"/></clipPath><linearGradient id="linear-gradient-7" x1="-168.91" y1="558.81" x2="-167.91" y2="558.81" gradientTransform="matrix(0, -38.43, -38.43, 0, 21859.74, -6190.21)" xlink:href="#linear-gradient"/><clipPath id="clip-path-11"><path class="cls-1" d="M403.83,198.73c-6,.71-10.4,5.12-9.83,9.81s5.88,8,11.88,7.23,10.38-5.13,9.8-9.82c-.51-4.26-4.91-7.32-10.18-7.32a13.48,13.48,0,0,0-1.67.1m-25.54,2.86.24,1-.24-1m-1.47-5.49q.8,2.73,1.47,5.49-.68-2.76-1.47-5.49M385,173.22c1.65,3.79,3.16,7.64,4.5,11.56q-2-5.88-4.5-11.56m-6.76-7.28a61.25,61.25,0,0,1,4.6,9.78,35.63,35.63,0,0,1,1.41,5.07c.19,1,.33,1.9.43,2.81.07.75.12,1.47.14,2.19s0,1.23,0,1.84a143.35,143.35,0,0,1,4.4,16.26,146.06,146.06,0,0,0-4.4-16.26c0,.56,0,1.11-.09,1.66s-.08,1-.13,1.52-.11,1-.17,1.49l-.18,1.29-.07,0-.71-.33-.71-.29-.7-.26-.69-.23-.69-.22L380,192l-.68-.18-.68-.17-.68-.16-.67-.14-.67-.13-.66-.12-.66-.11-.66-.1-.66-.09-.65-.08-.65-.07-.66-.07h0l-.65-.06-.65-.05-.64,0-.65,0-.64,0-.64,0-.64,0h-.08L368,192a123.24,123.24,0,0,1,4.4,13.3q.93,3.47,1.67,7l.3-.05.6-.08.59,0h.6l.61,0,.62.07c.2,0,.41.06.62.11s.42.09.63.15.42.11.63.18l.63.23.64.26.64.29h0l.64.33.66.36.41.24a48,48,0,0,0,.92,5.89c.26,1.15.56,2.26.89,3.34.23.76.48,1.5.74,2.23s.44,1.2.68,1.78.43,1,.65,1.53.42.9.63,1.33.41.84.62,1.24.4.75.6,1.11l.6,1,.59,1,.58.91.58.86.57.82.58.79.57.76.56.71.56.68.56.66.57.64.56.61.56.59.56.56.55.53.56.51c.28.26.48.42.56.49l.05,0-.05-.07-.53-.81-.54-.84-.53-.91-.55-1c-.18-.36-.37-.71-.54-1.07s-.37-.77-.54-1.16-.38-.89-.56-1.33-.38-1-.55-1.49-.4-1.18-.57-1.77-.42-1.47-.59-2.2c-.27-1.09-.49-2.19-.67-3.28a65.86,65.86,0,0,1-.78-11.27c0-1.34.05-2.67.11-4,0-1,.09-2,.15-3l.17-2.57.17-2.39.15-2.27.14-2.17,0-.44c0-.61.06-1.23.07-1.84,0-.85,0-1.71,0-2.57,0-1-.11-2.05-.21-3.09-.8-2.91-1.7-5.78-2.67-8.63,1,2.85,1.87,5.72,2.67,8.63-.14-1.39-.34-2.8-.6-4.19a48,48,0,0,0-5.47-14.94c-.67-1.18-1.39-2.33-2.18-3.46.31.68.62,1.36.92,2.05-.3-.69-.61-1.37-.92-2.06-.56-.8-1.15-1.59-1.77-2.36s-1-1.29-1.6-1.91-1-1.06-1.48-1.58-.9-.91-1.38-1.35-.87-.8-1.32-1.19l-.47-.4c.86,1.36,1.63,2.67,2.34,3.92m-4.61-8.3.73.08.51,0-.62-.23-.9-.35Z"/></clipPath><linearGradient id="linear-gradient-8" x1="-168.92" y1="558.82" x2="-167.92" y2="558.82" gradientTransform="matrix(-36.82, 0, 0, 36.82, -5814.72, -20373.97)" xlink:href="#linear-gradient"/><clipPath id="clip-path-12"><path class="cls-1" d="M352.08,117.14c-4.43,4.1-5.4,10.25-2.19,13.72s9.43,3,13.86-1.14,5.38-10.25,2.16-13.71a7.58,7.58,0,0,0-5.67-2.31,12.24,12.24,0,0,0-8.16,3.44m-19,17.32.81.69-.81-.69m-4.41-3.57c1.5,1.16,3,2.35,4.41,3.57-1.45-1.22-2.91-2.41-4.41-3.57m-6.87-23.29q5.34,3.14,10.43,6.7-5.08-3.57-10.43-6.7m-9.75-1.93a62,62,0,0,1,9.47,5.22,35.87,35.87,0,0,1,4.13,3.27c.72.67,1.38,1.35,2,2s1,1.11,1.4,1.68.74,1,1.08,1.49a145.78,145.78,0,0,1,13.12,10.57,145.78,145.78,0,0,0-13.12-10.57c.32.46.62.93.91,1.39s.53.88.79,1.32.49.86.73,1.3l.62,1.15-.07,0-.77.16-.74.18-.72.2-.7.21-.68.23-.67.24-.66.25-.65.26-.64.28-.63.28-.62.29-.6.29-.6.3-.59.31-.59.31-.57.31-.57.33-.57.33h0l-.57.33-.55.34-.55.35-.55.34-.54.35-.53.36-.53.35-.07.05,1.49.93a124.84,124.84,0,0,1,11.37,8.18q2.79,2.25,5.46,4.67l.22-.22.43-.41c.15-.13.3-.26.46-.38s.32-.25.48-.36l.51-.34c.17-.1.35-.21.54-.3l.56-.28.6-.25.62-.22.64-.19.68-.17.69-.14h0l.72-.11.74-.09.47-.05a47.77,47.77,0,0,0,4.21,4.21c.88.78,1.78,1.51,2.68,2.19.63.48,1.27.94,1.91,1.37s1.07.71,1.6,1,.95.58,1.42.85l1.3.71c.41.22.82.44,1.23.64l1.13.54,1.1.49,1,.45,1,.4,1,.35.95.33.93.3.91.28.86.24.86.22.84.21.83.18.82.16.8.15.78.12.76.11.75.09.74.06h.06l-.07,0-.91-.34-.93-.37-1-.43c-.35-.15-.69-.31-1-.48l-1.06-.55c-.38-.2-.76-.41-1.12-.62s-.83-.49-1.24-.75-.89-.58-1.32-.88-1-.72-1.51-1.1-1.19-.94-1.77-1.43c-.85-.72-1.67-1.48-2.46-2.26a66.15,66.15,0,0,1-7.25-8.66c-.78-1.09-1.54-2.19-2.27-3.29-.56-.84-1.1-1.69-1.64-2.53l-1.37-2.17-1.28-2-1.2-1.92-1.17-1.84-.24-.37c-.33-.51-.67-1-1-1.53-.48-.69-1-1.38-1.53-2.06s-1.29-1.6-2-2.37q-3.54-2.82-7.24-5.42,3.69,2.6,7.24,5.41c-.93-1-1.92-2.06-3-3a48.17,48.17,0,0,0-13.21-8.88c-1.23-.55-2.49-1.06-3.79-1.51l1.15.65.8.47-.8-.47-1.16-.65c-.93-.32-1.87-.62-2.82-.88s-1.6-.42-2.42-.6-1.41-.29-2.12-.41-1.27-.2-1.91-.28-1.18-.14-1.78-.19l-.61-.05c1.5.61,2.89,1.2,4.2,1.79m-8.17-4.45-.93.25.49.21.64-.37.44-.27Z"/></clipPath><linearGradient id="linear-gradient-9" x1="-168.9" y1="558.79" x2="-167.9" y2="558.79" gradientTransform="matrix(-31.63, 0, 0, 31.63, -4988.8, -17543.51)" xlink:href="#linear-gradient"/><clipPath id="clip-path-13"><path class="cls-1" d="M213.91,97l-.61.74.52-.12.3-.67.2-.48Zm43.16,9.73,1.06.08-1.06-.08m-5.66-.31c1.88.06,3.77.16,5.66.3-1.89-.14-3.78-.24-5.66-.3m-6.88-15.51h-.24q-6.09.1-12.14.7,6-.59,12.14-.7h.24m-11,0c-1.33.28-2.65.61-4,1l1.08-.12,1.15-.12-1.15.12-1.09.13c-.94.28-1.87.6-2.8.94-.77.29-1.54.6-2.3.94s-1.31.59-2,.92-1.15.58-1.71.89-1,.58-1.55.89l-.52.32c1.56-.39,3-.72,4.45-1a61,61,0,0,1,10.72-1.35,36.68,36.68,0,0,1,5.27.22c1,.12,1.91.28,2.8.47.73.16,1.43.34,2.12.54s1.18.36,1.75.57a145.8,145.8,0,0,1,16.83.83,145.8,145.8,0,0,0-16.83-.83c.53.18,1,.38,1.56.59s.94.39,1.4.6l1.36.62,1.18.57-.05.05-.53.59-.49.58-.46.58-.44.59-.42.58-.4.59-.39.59-.37.6-.36.59-.34.6-.33.59-.32.6-.31.59-.29.6-.29.59-.28.6-.27.6-.27.6h0l-.26.6-.25.6-.24.6-.24.6-.23.6-.22.6-.22.6,0,.08,1.75-.12a123.53,123.53,0,0,1,14-.07q3.58.18,7.16.58l.05-.31.11-.59c0-.19.09-.39.14-.58s.12-.38.18-.57l.21-.57c.08-.19.17-.38.26-.57l.29-.55.34-.56.37-.54.41-.53.45-.53.48-.52h0l.51-.52.55-.51.35-.32a45.92,45.92,0,0,0,5.88.94c1.18.11,2.33.18,3.45.2.8,0,1.58,0,2.35,0s1.28,0,1.91-.1,1.11-.09,1.65-.15,1-.11,1.47-.18.92-.13,1.37-.21l1.24-.23,1.17-.24,1.11-.26,1-.27,1-.29,1-.29.94-.3.89-.31.85-.31.82-.33.8-.33.78-.34.76-.35.73-.35.7-.35.68-.37.67-.37.63-.38,0,0-.07,0-.94.26-1,.24-1,.23-1.12.21-1.18.19c-.43.06-.85.11-1.28.15s-1,.09-1.43.12-1.07.06-1.59.07h-1.86q-1.14,0-2.28-.12c-1.11-.09-2.22-.22-3.32-.39a65.31,65.31,0,0,1-11-2.73c-1.27-.43-2.53-.87-3.77-1.34-.94-.35-1.88-.71-2.81-1.08l-2.39-.95L265.3,95l-2.11-.85-2-.8-.42-.16c-.57-.22-1.14-.43-1.73-.63-.8-.28-1.62-.53-2.44-.77-1-.28-2-.53-3-.75q-4.37-.2-8.73-.13h0q4.36-.06,8.73.13-2.06-.45-4.17-.72a47.89,47.89,0,0,0-6.25-.41,47.4,47.4,0,0,0-9.65,1m28.75-9.35c-1.17,5.91,1.66,11.47,6.3,12.38s9.37-3.14,10.54-9.06-1.67-11.46-6.31-12.36a6.73,6.73,0,0,0-1.33-.13c-4.19,0-8.15,3.82-9.2,9.17"/></clipPath><linearGradient id="linear-gradient-10" x1="-168.93" y1="558.79" x2="-167.93" y2="558.79" gradientTransform="matrix(-29.04, 0, 0, 29.04, -4641.37, -16133.4)" xlink:href="#linear-gradient"/></defs><g class="cls-2"><path class="cls-3" d="M66.19,275.36,68,281.78l-6,4.44L65.39,298l7.39.55,1.78,6.3-32.65-3.07-1.79-6.29Zm-8.58,14.2-9.72,7.18,12,.88ZM66.29,273l-1-5.76-30.09,5.37,1,5.76Zm-26.65-7.55-5.38.68-.74-5.8,5.38-.69Zm25-3.17-22,2.79-.74-5.8,22-2.8ZM47.84,247.56l-.8,5.31a8.34,8.34,0,0,1-4.88-3c-1.08-1.44-1.65-3.59-1.73-6.47a14.22,14.22,0,0,1,.78-5.86,5.89,5.89,0,0,1,2.29-2.76c.94-.54,2.67-.85,5.22-.91l6.83-.09a23.91,23.91,0,0,0,4.3-.39,12,12,0,0,0,2.94-1.12l.15,5.81c-.38.16-.95.36-1.69.6a4.89,4.89,0,0,0-.68.23,10.61,10.61,0,0,1,2.28,3.14,9.23,9.23,0,0,1,.84,3.62A7.52,7.52,0,0,1,62,251.13a6.14,6.14,0,0,1-4.63,2.08A6.36,6.36,0,0,1,54,252.4a5.85,5.85,0,0,1-2.31-2.46,19.91,19.91,0,0,1-1.49-4.61,31.71,31.71,0,0,0-1.58-5.65H48a3.11,3.11,0,0,0-2.42.9,5,5,0,0,0-.64,3.17,4.13,4.13,0,0,0,.68,2.43,4.36,4.36,0,0,0,2.23,1.37m4.54-8a35.92,35.92,0,0,1,1,3.54,11.12,11.12,0,0,0,1.1,3.17,2.47,2.47,0,0,0,2.09,1.09,2.88,2.88,0,0,0,2.1-1,3.23,3.23,0,0,0,.84-2.36,5.14,5.14,0,0,0-1.12-3,3.67,3.67,0,0,0-2-1.34,11.8,11.8,0,0,0-2.86-.16Zm12.25-30.89-.45,5.83-11.26-.85a16.94,16.94,0,0,0-4.65,0,3.28,3.28,0,0,0-1.72,1.1,3.5,3.5,0,0,0-.74,2,4.76,4.76,0,0,0,.62,2.81,4.21,4.21,0,0,0,2.07,1.84,19.07,19.07,0,0,0,5,.84l10,.76-.45,5.83L41,227.19l.41-5.41,3.25.25a9.17,9.17,0,0,1-2.19-11.1,5.93,5.93,0,0,1,2-2.29,6.43,6.43,0,0,1,2.54-1,18.51,18.51,0,0,1,3.95,0Zm.59-2.51-4.5-1-7.39-10.21c-1.21-1.68-2-2.91-2.54-3.69-.12.67-.29,1.55-.53,2.64l-1.71,7.62-4.75-1.1,4.12-17.84,4,.93,7.6,10.43L62,197.56c.28-1.6.46-2.6.55-3l2-8.83,5,1.16ZM57.38,175A4.32,4.32,0,0,1,55.76,173a4.11,4.11,0,0,1,.19-2.52,5,5,0,0,1,1.7-2.76,3.09,3.09,0,0,1,2.58,0l.56.18a32.12,32.12,0,0,1-.46,5.85,19.64,19.64,0,0,0-.2,4.85,5.9,5.9,0,0,0,1.32,3.1,6.36,6.36,0,0,0,2.89,1.92,6.13,6.13,0,0,0,5.07-.36,7.5,7.5,0,0,0,3.48-4.49,9.13,9.13,0,0,0,.46-3.68,10.41,10.41,0,0,0-1.06-3.74,6.78,6.78,0,0,1,.71,0c.79,0,1.39,0,1.8,0l1.86-5.5a12.76,12.76,0,0,1-3.14,0,24,24,0,0,1-4.17-1.11l-6.45-2.27c-2.41-.82-4.14-1.13-5.21-.94a5.76,5.76,0,0,0-3.1,1.8,14,14,0,0,0-2.75,5.24c-.92,2.72-1.13,4.94-.61,6.66a8.39,8.39,0,0,0,3.56,4.46Zm7-5.93,1.1.38a11.7,11.7,0,0,1,2.63,1.13,3.65,3.65,0,0,1,1.4,1.94,5.15,5.15,0,0,1,0,3.2,3.13,3.13,0,0,1-1.6,1.92,2.84,2.84,0,0,1-2.31.19A2.45,2.45,0,0,1,64,176.12a11,11,0,0,1,0-3.35c.2-1.66.29-2.88.3-3.67M63.89,141l2.73-4.74,2.82,1.62a8.1,8.1,0,0,1,.21-7.84,8.41,8.41,0,0,1,5.89-4.16q4-.83,8.66,1.87t6.13,6.65a8.43,8.43,0,0,1-.6,7.24,7.38,7.38,0,0,1-2.3,2.52,11.05,11.05,0,0,1-3.73,1.48l9.62,5.52-2.92,5.08Zm12.19.35q3.24,1.88,5.54,1.48A4.51,4.51,0,0,0,85,140.59a4.24,4.24,0,0,0,.26-3.76c-.5-1.33-1.83-2.61-4-3.86s-3.76-1.62-5.2-1.37a4.24,4.24,0,0,0-3.19,2.14,4.44,4.44,0,0,0-.33,3.92,7.4,7.4,0,0,0,3.57,3.68m10.07-17a13.39,13.39,0,0,0,6,2.88,9.53,9.53,0,0,0,5.77-.8,12.88,12.88,0,0,0,4.67-3.72,11,11,0,0,0,2.45-8.46,11.44,11.44,0,0,0-4.57-7.7A11.31,11.31,0,0,0,92,103.92a11,11,0,0,0-7.65,4.46,12,12,0,0,0-2.5,5.52,9.93,9.93,0,0,0,.76,5.79,12,12,0,0,0,3.56,4.62m4-4.54a7.34,7.34,0,0,1-3-4.35,5.08,5.08,0,0,1,4.75-6,7.33,7.33,0,0,1,4.9,1.87,7.5,7.5,0,0,1,3,4.37,5.09,5.09,0,0,1-4.76,6,7.33,7.33,0,0,1-4.93-1.9m25.46-13-4,4.24-16-15.29,3.74-3.93,2.28,2.17a9.11,9.11,0,0,1-.38-3.84,4.77,4.77,0,0,1,1.25-2.32,7.57,7.57,0,0,1,3.47-2l2.44,4.84a5.13,5.13,0,0,0-2.59,1.33,3.3,3.3,0,0,0-1,2,4.68,4.68,0,0,0,.85,2.66,34.67,34.67,0,0,0,5,5.48ZM143.22,83l-1.92-2.7a9,9,0,0,1-1,4.15,8.73,8.73,0,0,1-2.79,3.26,8,8,0,0,1-3.84,1.53,5.73,5.73,0,0,1-3.69-.76,12.13,12.13,0,0,1-3.5-3.55l-8.15-11.45,4.77-3.39,5.92,8.32a28,28,0,0,0,3.59,4.48,3.07,3.07,0,0,0,1.93.68,3.61,3.61,0,0,0,2.13-.76,4.64,4.64,0,0,0,1.72-2.23,4.16,4.16,0,0,0,.14-2.62,23.46,23.46,0,0,0-3.11-5.14L130,65.15l4.77-3.39,12.84,18.06ZM169.31,67l-6.85-11.93a17.93,17.93,0,0,0-2.25-3.25A6.26,6.26,0,0,0,158,50.3a6,6,0,0,0-3-.32A9.16,9.16,0,0,0,147,58l-1.62-2.82-4.7,2.7,11.05,19.22,5.07-2.92-5-8.69a18.64,18.64,0,0,1-2.14-4.64,4.22,4.22,0,0,1,.35-2.74,4.81,4.81,0,0,1,2-2.1,3.54,3.54,0,0,1,2.07-.51,3.28,3.28,0,0,1,1.89.8,17.61,17.61,0,0,1,2.63,3.83L164.24,70Zm15.62-6.38-9.8-29L195,25l1.66,4.89-14,4.75L185,41.49l12.13-4.11,1.66,4.9-12.14,4.1,4.16,12.3Zm38.33-10-.58-3.27a9,9,0,0,1-6.56,5.11,8.23,8.23,0,0,1-4.12-.26A5.82,5.82,0,0,1,209,50a12.4,12.4,0,0,1-1.65-4.7l-2.47-13.84,5.76-1,1.8,10.05A27,27,0,0,0,213.75,46a3,3,0,0,0,1.45,1.44,3.65,3.65,0,0,0,2.26.23A4.71,4.71,0,0,0,220,46.42a4.19,4.19,0,0,0,1.24-2.3,24,24,0,0,0-.62-6l-1.65-9.22,5.76-1,3.9,21.82ZM242,26.53l.36,4.64-4,.3.68,9a22.51,22.51,0,0,0,.36,3.17,1.31,1.31,0,0,0,.58.7,1.67,1.67,0,0,0,1,.22,8,8,0,0,0,2.31-.74l.84,4.5a11.54,11.54,0,0,1-4.54,1.23,7.28,7.28,0,0,1-2.88-.32,4.13,4.13,0,0,1-2-1.24,5.5,5.5,0,0,1-1-2.23,29.93,29.93,0,0,1-.5-4.12l-.73-9.67-2.68.2-.36-4.64,2.69-.2-.34-4.39L237.42,19l.6,7.83Zm19.42,22.2.08-3.32a9,9,0,0,1-7.44,3.69,8.09,8.09,0,0,1-4-1.09,5.79,5.79,0,0,1-2.5-2.82,12.23,12.23,0,0,1-.67-4.94l.35-14,5.85.15-.26,10.2a28,28,0,0,0,.18,5.74A3.14,3.14,0,0,0,254.18,44a3.65,3.65,0,0,0,2.16.67,4.66,4.66,0,0,0,2.72-.76,4.16,4.16,0,0,0,1.68-2,24,24,0,0,0,.59-6l.24-9.36,5.85.15-.56,22.16Zm15.94,1.5-5.8-.73,2.8-22,5.37.68-.39,3.12a9.34,9.34,0,0,1,2.87-2.58,4.73,4.73,0,0,1,2.6-.36,7.46,7.46,0,0,1,3.7,1.58l-2.45,4.84a5.17,5.17,0,0,0-2.61-1.3,3.2,3.2,0,0,0-2.16.41,4.61,4.61,0,0,0-1.64,2.25,34.92,34.92,0,0,0-1.42,7.31Zm11.14-9.92a13.58,13.58,0,0,0-.06,6.64,9.48,9.48,0,0,0,3.19,4.89A12.91,12.91,0,0,0,297,54.49a11,11,0,0,0,8.7-1.39,11.45,11.45,0,0,0,5-7.41,11.37,11.37,0,0,0-1.27-8.77,11.06,11.06,0,0,0-7.29-5,12,12,0,0,0-6.06.08,9.86,9.86,0,0,0-4.91,3.15,12,12,0,0,0-2.68,5.19m5.8,1.66A7.35,7.35,0,0,1,297,37.4a5,5,0,0,1,4.16-.85,4.92,4.92,0,0,1,3.34,2.58,7.34,7.34,0,0,1,.38,5.23A7.52,7.52,0,0,1,302.2,49a5.09,5.09,0,0,1-7.5-1.73,7.35,7.35,0,0,1-.38-5.28m28.59,20.16L335.4,34.5,341,37.06,330.68,60l14,6.32L342.52,71Zm34.84-10.85,2.71-4.7,5.07,2.91-2.71,4.7Zm-12.53,21.8L350.29,76l11-19.22-5.08-2.91Zm9.17,5.33,4.42,3.14,1.88-2.65a9.31,9.31,0,0,0,.95,4.15,8.09,8.09,0,0,0,2.49,3,8.45,8.45,0,0,0,7.13,1.3q4-.94,7.27-5.57t2.73-8.41a8.63,8.63,0,0,0-3.76-6.26,8.26,8.26,0,0,0-7-1.21l6.4-9-4.77-3.39Zm11.37-6a7.53,7.53,0,0,1,4-3.26,4.41,4.41,0,0,1,3.81.7,4.36,4.36,0,0,1,1.9,3.42c.09,1.44-.59,3.2-2.06,5.27s-2.77,3.11-4.16,3.49a4.16,4.16,0,0,1-3.66-.57,4.62,4.62,0,0,1-1.94-4.26,9.33,9.33,0,0,1,2.07-4.79m13.06,25L374.4,93.5l14.51-16.75L393,80.3,391,82.68a9.1,9.1,0,0,1,3.82-.56,4.68,4.68,0,0,1,2.37,1.14,7.51,7.51,0,0,1,2.2,3.36l-4.72,2.67a5.12,5.12,0,0,0-1.45-2.52,3.28,3.28,0,0,0-2-.86,4.62,4.62,0,0,0-2.61,1,33.86,33.86,0,0,0-5.24,5.29Zm21.23,11.74a4.7,4.7,0,0,1-2.75.51,3.63,3.63,0,0,1-2.08-1.26,4.43,4.43,0,0,1-1.1-3.49,6,6,0,0,1,2.14-3.73l9.59,11.08q5.19-4.32,5.78-8.62a9.83,9.83,0,0,0-2.63-8,9.42,9.42,0,0,0-7.12-3.45q-4.25-.14-8.41,3.48a12.8,12.8,0,0,0-4.35,6.66q-1,4.57,2.74,8.94a10.46,10.46,0,0,0,5.25,3.49,9.57,9.57,0,0,0,6-.52Zm4.71-3.63a5.65,5.65,0,0,0,2.07-3.53,4,4,0,0,0-1-3.17,4.07,4.07,0,0,0-3.13-1.47A5.43,5.43,0,0,0,399,98.84ZM419.12,148l-2.93-4.57,2.74-1.76a9,9,0,0,1-4.14-1.16,8,8,0,0,1-2.81-2.62,8.46,8.46,0,0,1-1-7.19q1.13-4,5.77-6.93t8.65-2.4a8.67,8.67,0,0,1,6.09,4.07,8.28,8.28,0,0,1,.87,7.08l9.29-6,3.15,4.92Zm1.25-19.37a10.37,10.37,0,0,0-3.81,3.59,4.42,4.42,0,0,0,.2,4.58,4.29,4.29,0,0,0,3.31,2,8,8,0,0,0,5.1-1.6c2.15-1.38,3.45-2.75,3.91-4.13a4.34,4.34,0,0,0-.48-3.87,4.4,4.4,0,0,0-3.29-2,7.63,7.63,0,0,0-4.94,1.51m12.28,32.58a4.65,4.65,0,0,1-2.79-.3,3.59,3.59,0,0,1-1.63-1.79,4.41,4.41,0,0,1-.06-3.66,5.93,5.93,0,0,1,3.12-3l6,13.34q6.19-2.65,8-6.61a9.82,9.82,0,0,0-.23-8.44,9.42,9.42,0,0,0-5.85-5.34q-4-1.34-9.05.93a12.79,12.79,0,0,0-6.07,5.15q-2.3,4.08.08,9.35a10.46,10.46,0,0,0,4,4.84,9.58,9.58,0,0,0,5.92,1.22ZM438.2,159l-3.6-8a5.42,5.42,0,0,1,4-.46,4.07,4.07,0,0,1,2.58,2.3,4,4,0,0,1,0,3.32,5.67,5.67,0,0,1-3,2.79m11,42-.44,6.24a13.59,13.59,0,0,1-8.34-2.78,13,13,0,0,1-4.22-7.36,13.17,13.17,0,0,1,1.81-10.7q3.18-4.75,10.21-6.38,7.44-1.72,12.45,1.17a13.51,13.51,0,0,1,6.45,9.15,12.72,12.72,0,0,1-1.19,9.63,12,12,0,0,1-4.79,4.32l-2.79-5.62a6.32,6.32,0,0,0,3.54-7.43,7,7,0,0,0-3.62-4.84q-2.85-1.51-8.17-.29c-3.76.87-6.29,2.17-7.57,3.89a6.77,6.77,0,0,0-1.18,5.84,6.17,6.17,0,0,0,2.48,3.79,9.08,9.08,0,0,0,5.37,1.37m6.2,15.84.53-5.35a8.36,8.36,0,0,1,5,2.72c1.14,1.37,1.83,3.5,2.05,6.37a14.16,14.16,0,0,1-.48,5.89,5.83,5.83,0,0,1-2.15,2.87q-1.37.89-5.17,1.18l-6.82.43a23.82,23.82,0,0,0-4.27.61,12.15,12.15,0,0,0-2.88,1.26l-.44-5.79c.37-.18.92-.41,1.66-.69a5.94,5.94,0,0,0,.67-.26,10.32,10.32,0,0,1-2.45-3,9.2,9.2,0,0,1-1-3.57,7.54,7.54,0,0,1,1.44-5.5,6.15,6.15,0,0,1,4.53-2.31,6.22,6.22,0,0,1,3.41.64,5.85,5.85,0,0,1,2.43,2.33,19.6,19.6,0,0,1,1.71,4.54,32.36,32.36,0,0,0,1.87,5.56l.59,0a3.1,3.1,0,0,0,2.37-1,5,5,0,0,0,.48-3.21,4.06,4.06,0,0,0-.81-2.38,4.3,4.3,0,0,0-2.29-1.26m-4.13,8.2c-.31-.73-.69-1.89-1.17-3.49a11.13,11.13,0,0,0-1.25-3.1,2.48,2.48,0,0,0-2.15-1,2.88,2.88,0,0,0-2.05,1.08,3.2,3.2,0,0,0-.72,2.39,5.1,5.1,0,0,0,1.27,2.94,3.75,3.75,0,0,0,2,1.25,12.16,12.16,0,0,0,2.86,0ZM441,242l.15-5.84,22.15.55-.13,5.43-3.15-.08a9.2,9.2,0,0,1,2.86,2.59,4.8,4.8,0,0,1,.63,2.56,7.59,7.59,0,0,1-1.2,3.83l-5.07-1.94a5.19,5.19,0,0,0,1-2.73,3.25,3.25,0,0,0-.63-2.11,4.67,4.67,0,0,0-2.41-1.41,35.11,35.11,0,0,0-7.41-.67Zm24.59,11.91,5.4.41-.44,5.84-5.41-.41ZM440.49,252l22.1,1.69-.45,5.83L440,257.86Zm3.7,24.67-2,5.58a9.61,9.61,0,0,1-4.2-4.35,10.5,10.5,0,0,1-.58-6.28q1-5.68,5.22-7.75a12.69,12.69,0,0,1,7.92-.81q5.42,1,8,4.34a9.46,9.46,0,0,1,1.8,7.71,9.82,9.82,0,0,1-4.59,7.1q-3.72,2.24-10.33.92L448,268.73a5.94,5.94,0,0,0-4.24.69,4.37,4.37,0,0,0-2,3.05,3.58,3.58,0,0,0,.33,2.4,4.63,4.63,0,0,0,2.13,1.82m5.78,1.38a5.74,5.74,0,0,0,4-.61,4,4,0,0,0,1.84-2.76,4.09,4.09,0,0,0-.82-3.36,5.5,5.5,0,0,0-3.54-1.87Zm-8.35,6.75-.74,5.91a4.19,4.19,0,0,0-2.9.77,5.19,5.19,0,0,0-1.73,2.84,5.88,5.88,0,0,0-.13,3.52,1.89,1.89,0,0,0,1.3,1.17,1.54,1.54,0,0,0,1.18-.1,4.62,4.62,0,0,0,1.28-1.67q3.45-6.4,5.21-7.87a5.72,5.72,0,0,1,5.53-1.17,6.16,6.16,0,0,1,4,3.52q1.27,2.72,0,7.31-1.25,4.38-3.28,6.1a7.63,7.63,0,0,1-5.07,1.72l.52-5.58a3.44,3.44,0,0,0,2.29-.75,4.86,4.86,0,0,0,1.44-2.54,6.41,6.41,0,0,0,.29-3.39,1.36,1.36,0,0,0-1-1,1.34,1.34,0,0,0-1.19.27c-.52.41-1.54,2-3.08,4.84s-3,4.68-4.31,5.59a5.4,5.4,0,0,1-4.7.58,6.71,6.71,0,0,1-4.34-3.88q-1.41-3-.05-7.85a12.43,12.43,0,0,1,3.72-6.4,8.39,8.39,0,0,1,5.71-2"/></g><g class="cls-4"><rect class="cls-5" x="134.72" y="119.9" width="235.35" height="235.36" transform="translate(10.45 485.79) rotate(-89)"/></g><g class="cls-6"><rect class="cls-7" x="130.13" y="77.65" width="92.61" height="83.54" transform="translate(-34.49 89.43) rotate(-26)"/></g><g class="cls-2"><path class="cls-8" d="M357.83,221.16V208H315.88v58.45H331v-23h23.27V231.12H331v-10ZM266.62,208v58.45h15.1v-23H305V231.12H281.72v-10h26.84V208H266.62Zm-23.25,35.43a14.53,14.53,0,0,1-3.5,8.23c-1.8,2-4.24,3-7.69,3a12.78,12.78,0,0,1-6.31-1.42,12,12,0,0,1-4.19-3.78,17.17,17.17,0,0,1-2.39-5.5,26.7,26.7,0,0,1-.78-6.46,29.08,29.08,0,0,1,.78-6.76,17.33,17.33,0,0,1,2.41-5.65,11.53,11.53,0,0,1,4.17-3.82,13,13,0,0,1,6.31-1.41,11,11,0,0,1,3.82.66,11.44,11.44,0,0,1,3.29,1.82A11.26,11.26,0,0,1,241.7,225v0a8.54,8.54,0,0,1,1.19,3.29l.18,1.24h14.68l-.17-1.6a24.19,24.19,0,0,0-2.84-9.13,22.1,22.1,0,0,0-5.68-6.67,24.94,24.94,0,0,0-7.76-4.08,29,29,0,0,0-9.12-1.41,29.54,29.54,0,0,0-12.06,2.39,25.63,25.63,0,0,0-9.1,6.6,28.5,28.5,0,0,0-5.65,9.76,36,36,0,0,0-2,12,34.91,34.91,0,0,0,2,11.8,28.24,28.24,0,0,0,5.66,9.62,25.83,25.83,0,0,0,9.09,6.46,29.73,29.73,0,0,0,12.06,2.35,28.85,28.85,0,0,0,9.9-1.65,23.13,23.13,0,0,0,8-4.81,24.06,24.06,0,0,0,5.46-7.61,30.17,30.17,0,0,0,2.54-9.89l.14-1.57H243.5Zm-66.13-1.33H166.88l5.27-14.8Zm1.32-34.1H165l-22.11,58.45h15.39l4.36-12.37h18.75l4.19,12.37H201.4L179.54,208Z"/><path class="cls-9" d="M345.5,294.2H317.26a185.52,185.52,0,0,0,5.53-24.65h11.3v-23l23.28,0v-5h3.9A108.47,108.47,0,0,1,345.5,294.2m-49.83,43.49a104.79,104.79,0,0,0,8.54-12.6,140.3,140.3,0,0,0,10.45-22.88h25.45a109.49,109.49,0,0,1-44.44,35.48m-14.36,4.95a84.78,84.78,0,0,0,16.79-21.07,130.16,130.16,0,0,0,9-19.36H255.75v44.26a108.16,108.16,0,0,0,25.56-3.83M222,233.57c.1-.71.21-1.44.37-2.13a14.21,14.21,0,0,1,2-4.65,8.51,8.51,0,0,1,3.08-2.81,9.93,9.93,0,0,1,4.8-1,7.72,7.72,0,0,1,2.77.48,8,8,0,0,1,4,3.06l.1.17a5.74,5.74,0,0,1,.76,2.12l.63,4.79Zm18.48,8-.16,1.44a11.51,11.51,0,0,1-2.68,6.53c-.84.9-2.22,1.94-5.41,2a9.9,9.9,0,0,1-4.8-1,8.87,8.87,0,0,1-3.11-2.8,14.34,14.34,0,0,1-2-4.49c-.12-.53-.2-1.07-.29-1.6Zm9.6,19.66a23.93,23.93,0,0,0,5.47-7.61,30.17,30.17,0,0,0,2.54-9.89l.14-1.57H243.5l-.13,1.26a14.59,14.59,0,0,1-3.5,8.23c-1.8,2-4.24,2.94-7.69,3a12.78,12.78,0,0,1-6.31-1.42,12,12,0,0,1-4.19-3.78,17.17,17.17,0,0,1-2.39-5.5,26.7,26.7,0,0,1-.78-6.46,29.08,29.08,0,0,1,.78-6.76,17.33,17.33,0,0,1,2.41-5.65,11.53,11.53,0,0,1,4.17-3.82,13,13,0,0,1,6.31-1.41,11,11,0,0,1,3.82.66,11.44,11.44,0,0,1,3.29,1.82A11.26,11.26,0,0,1,241.7,225v0a8.54,8.54,0,0,1,1.19,3.29l.18,1.24h14.68l-.17-1.6a24.19,24.19,0,0,0-2.84-9.13,22.23,22.23,0,0,0-5.68-6.67,24.94,24.94,0,0,0-7.76-4.08,29,29,0,0,0-9.12-1.41,29.54,29.54,0,0,0-12.06,2.39,25.63,25.63,0,0,0-9.1,6.6,28.5,28.5,0,0,0-5.65,9.76,36,36,0,0,0-2,12,34.91,34.91,0,0,0,2,11.8,28.33,28.33,0,0,0,5.66,9.62,25.83,25.83,0,0,0,9.09,6.46,29.73,29.73,0,0,0,12.06,2.35,28.85,28.85,0,0,0,9.9-1.65,23,23,0,0,0,7.95-4.81m-2.29,33V266.79a26,26,0,0,1-4.6,2.2,32.11,32.11,0,0,1-11,1.82,33,33,0,0,1-13.31-2.6A29.24,29.24,0,0,1,208.7,261a31.66,31.66,0,0,1-6.27-10.66,37.17,37.17,0,0,1-1.91-8.73h-5.09l10.46,28H187.65a178.23,178.23,0,0,0,5.72,24.65Zm0,52.21a109.31,109.31,0,0,1-26.46-4.32,86.3,86.3,0,0,1-16.13-20.53,127.55,127.55,0,0,1-9-19.35h51.6Zm-83.06-44.2a109.27,109.27,0,0,0,42,34.31,101.7,101.7,0,0,1-7.66-11.44,139.7,139.7,0,0,1-10.43-22.87Zm-16.46-32.66h12.3l4.36-12.35H179a189.45,189.45,0,0,0,7,37H159.3a107.86,107.86,0,0,1-11.08-24.65M165,208h14.51l21.86,58.45H185.61l-4.19-12.37H162.67l-4.36,12.37H142.92Zm-16,33.58h-5.47a113.74,113.74,0,0,0,1.09,11.58ZM159.29,181a108.35,108.35,0,0,0-15.77,52.6H152l10.86-28.68h17.78A183.89,183.89,0,0,1,186.07,181Zm47.57-42.41a104.61,104.61,0,0,0-7.73,11.52A139.45,139.45,0,0,0,188.66,173h-24a109.46,109.46,0,0,1,42.18-34.39M247.74,181H193.41a183.14,183.14,0,0,0-7.2,36l6.22,16.63h8a38.52,38.52,0,0,1,1.94-9.17,32.14,32.14,0,0,1,6.26-10.82,29,29,0,0,1,10.18-7.36,32.69,32.69,0,0,1,13.32-2.66,32.22,32.22,0,0,1,10.08,1.56,28.23,28.23,0,0,1,5.48,2.45Zm-26.33-47.92a86,86,0,0,0-16.18,20.55,130,130,0,0,0-9,19.35h51.55v-44.2a108.88,108.88,0,0,0-26.33,4.3M255.75,181H310a175.49,175.49,0,0,1,5.59,23.92h-2.8v28.68H308.1V228H284.84v-3.72h26.84V204.89H263.49v28.68h-2.23l-.58-6a27.26,27.26,0,0,0-3.21-10.28,26.6,26.6,0,0,0-1.72-2.64Zm0-52.28a108.41,108.41,0,0,1,25.71,3.87,84.77,84.77,0,0,1,16.71,21,128.06,128.06,0,0,1,9,19.35H255.75ZM305,231.12H281.72v-10h26.84V208H266.62v58.45h15.1v-23H305Zm-20.13,38.43v-23l23.26,0v-5h4.66v28h2.89a175.38,175.38,0,0,1-5.73,24.65H255.75V259.41a28.11,28.11,0,0,0,2.58-4.47A33.07,33.07,0,0,0,261.14,244l.22-2.44h2.13v28ZM340.11,173a109.4,109.4,0,0,0-44.31-35.41,106.51,106.51,0,0,1,8.48,12.54A140.17,140.17,0,0,1,314.72,173Zm16.21,31.94H322.69A182.27,182.27,0,0,0,317.3,181h28.2a108.14,108.14,0,0,1,10.82,23.92m1.51,3.11H315.88v58.45H331v-23h23.27V231.12H331v-10h26.86Zm3.44,25.57h-3.9V228H334.09v-3.72h26.39c.37,3.07.67,6.15.79,9.29M252.39,117.2A120.38,120.38,0,1,0,372.77,237.59,120.38,120.38,0,0,0,252.39,117.2"/><polygon class="cls-9" points="166.88 242.1 177.24 242.1 172.15 227.3 166.88 242.1"/><path class="cls-10" d="M21.12,459.4l7-24.21h4l6.51,24.21H35.51l-1.73-6.65H26l-1.81,6.65ZM30,438.62l-3.36,11.69h6.53l-3.1-11.69Zm10.38-3.43h2.85V459.4H40.38Zm6.93,6h2.85V459.4H47.31Zm0-6h2.85v3.25H47.31Zm9.16,11.52H53.63a7.89,7.89,0,0,1,.62-3.4,3.84,3.84,0,0,1,2-1.94,8.54,8.54,0,0,1,3.52-.62,6.72,6.72,0,0,1,3.73.82,3.34,3.34,0,0,1,1.5,1.9,9.71,9.71,0,0,1,.28,2.49V456.1a7,7,0,0,0,0,.77.8.8,0,0,0,.25.48.79.79,0,0,0,.61.2,1.22,1.22,0,0,0,.68-.16v2a9.24,9.24,0,0,1-1.68.2,5.42,5.42,0,0,1-1.24-.12,1.67,1.67,0,0,1-.88-.62,2.94,2.94,0,0,1-.44-1.6h-.07a5.11,5.11,0,0,1-1.88,1.9,4.86,4.86,0,0,1-2.51.71,4.69,4.69,0,0,1-3.71-1.4,5.64,5.64,0,0,1-1.24-3.89c0-2.65,1.14-4.33,3.43-5l3.84-1.16a5.09,5.09,0,0,0,1.44-.64,1.37,1.37,0,0,0,.53-.76,6.08,6.08,0,0,0,.1-1.33,3,3,0,0,0-.33-1.46,2.14,2.14,0,0,0-1-.91,3.68,3.68,0,0,0-1.6-.31c-1.32,0-2.18.38-2.55,1.17a5.43,5.43,0,0,0-.56,2.39Zm5.94,7.47v-4.69a3.19,3.19,0,0,1-1.13.75c-.47.2-1.11.42-1.94.68a7.93,7.93,0,0,0-1.78.71,2.66,2.66,0,0,0-1.06,1.07,4,4,0,0,0-.33,1.8c0,2.09.85,3.14,2.57,3.14a3.64,3.64,0,0,0,2.55-1.05,3.27,3.27,0,0,0,1.12-2.41m6.7,5.22V441.22h2.71v2.13h.08a4.26,4.26,0,0,1,1.78-1.91,5.21,5.21,0,0,1,2.62-.69,4.89,4.89,0,0,1,3.25.91,3.7,3.7,0,0,1,1.3,2.08,14.07,14.07,0,0,1,.24,2.77V459.4H78.24V446.85a8.42,8.42,0,0,0-.16-1.73,2.52,2.52,0,0,0-.75-1.36,2.48,2.48,0,0,0-1.77-.57,3.76,3.76,0,0,0-2.48.92A3.36,3.36,0,0,0,72,446.85V459.4Zm15.16-15.74v-2.44h11v2.37L87.09,457h8.07v2.44H83.86v-2.24l8.25-13.5Zm16.14,3H97.58a7.89,7.89,0,0,1,.62-3.4,3.82,3.82,0,0,1,2-1.94,8.63,8.63,0,0,1,3.53-.62,6.74,6.74,0,0,1,3.73.82,3.38,3.38,0,0,1,1.5,1.9,9.71,9.71,0,0,1,.28,2.49V456.1a5.15,5.15,0,0,0,0,.77.85.85,0,0,0,.24.48.81.81,0,0,0,.62.2,1.19,1.19,0,0,0,.67-.16v2a9.06,9.06,0,0,1-1.67.2,5.42,5.42,0,0,1-1.24-.12,1.67,1.67,0,0,1-.88-.62,3,3,0,0,1-.45-1.6h-.06a5.14,5.14,0,0,1-1.89,1.9,4.8,4.8,0,0,1-2.5.71,4.69,4.69,0,0,1-3.71-1.4,5.64,5.64,0,0,1-1.24-3.89c0-2.65,1.14-4.33,3.42-5l3.85-1.16a5,5,0,0,0,1.43-.64,1.34,1.34,0,0,0,.54-.76,6.08,6.08,0,0,0,.1-1.33,3,3,0,0,0-.33-1.46,2.14,2.14,0,0,0-1-.91,3.68,3.68,0,0,0-1.6-.31c-1.33,0-2.18.38-2.55,1.17a5.44,5.44,0,0,0-.57,2.39Zm5.94,7.47v-4.69a3.1,3.1,0,0,1-1.13.75c-.46.2-1.11.42-1.94.68a7.81,7.81,0,0,0-1.77.71,2.59,2.59,0,0,0-1.06,1.07,4,4,0,0,0-.34,1.8c0,2.09.86,3.14,2.58,3.14a3.62,3.62,0,0,0,2.54-1.05,3.23,3.23,0,0,0,1.12-2.41m17.53-3.87a14.2,14.2,0,0,0,.78,5.15,2.88,2.88,0,0,0,2.9,2,2.48,2.48,0,0,0,2-.86,5.26,5.26,0,0,0,1-2.52,24.79,24.79,0,0,0,.28-4.07,19.78,19.78,0,0,0-.28-3.6,4.92,4.92,0,0,0-1-2.35,2.51,2.51,0,0,0-2-.84,3,3,0,0,0-2.33.87,4.73,4.73,0,0,0-1.08,2.39,22.69,22.69,0,0,0-.27,3.86m-2.67,15.06V441.22h2.7v2.23H124a3.07,3.07,0,0,1,.75-1.3,4.31,4.31,0,0,1,3.18-1.4,5,5,0,0,1,3.41,1.15,6.54,6.54,0,0,1,1.92,3.22,17.13,17.13,0,0,1,.61,4.85,21.64,21.64,0,0,1-.28,3.46,12,12,0,0,1-1,3.14,6.28,6.28,0,0,1-1.84,2.38,4.43,4.43,0,0,1-2.85.92,4,4,0,0,1-2.26-.69,4.1,4.1,0,0,1-1.54-1.85h-.06v8ZM136,450.3a18.93,18.93,0,0,1,.58-4.9,6.73,6.73,0,0,1,2.05-3.39,6.76,6.76,0,0,1,7.86,0,6.45,6.45,0,0,1,2,3.38,19.09,19.09,0,0,1,.57,4.91,14.19,14.19,0,0,1-1.46,7q-1.47,2.6-5.07,2.6t-5.11-2.6a14.31,14.31,0,0,1-1.45-7m6.48,7.34a2.88,2.88,0,0,0,1.81-.57,3.51,3.51,0,0,0,1.11-1.57,9,9,0,0,0,.55-2.25,23.08,23.08,0,0,0,.16-2.95,15.13,15.13,0,0,0-.76-5.36A2.83,2.83,0,0,0,142.5,443a2.62,2.62,0,0,0-2.14,1,5.64,5.64,0,0,0-1.06,2.57,20.9,20.9,0,0,0-.29,3.78,23.26,23.26,0,0,0,.27,3.78,5.74,5.74,0,0,0,1.05,2.59,2.64,2.64,0,0,0,2.17,1M152,459.4V441.22h2.85v2.71h.06a7.35,7.35,0,0,1,1.64-2.35,3.23,3.23,0,0,1,2.29-.83,3,3,0,0,1,1.26.2v2.78a1.84,1.84,0,0,0-.32-.06,4.57,4.57,0,0,0-.52-.05c-.22,0-.45,0-.68,0a3.7,3.7,0,0,0-2.51,1.13,4.09,4.09,0,0,0-1.22,3.18v11.5Zm30.15-18.18V459.4h-2.72v-2.13h-.06a4.1,4.1,0,0,1-1.8,1.89,5.22,5.22,0,0,1-2.62.71,4.88,4.88,0,0,1-3.24-.91,3.78,3.78,0,0,1-1.3-2.08,14.13,14.13,0,0,1-.23-2.77V441.22H173v12.56a6.25,6.25,0,0,0,.49,2.58,2.13,2.13,0,0,0,2.18,1.07,3.82,3.82,0,0,0,2.49-.92,3.35,3.35,0,0,0,1.12-2.73V441.22Zm3.72,18.18V441.22h2.7v2.13h.08a4.32,4.32,0,0,1,1.78-1.91,5.27,5.27,0,0,1,2.63-.69,4.91,4.91,0,0,1,3.25.91,3.81,3.81,0,0,1,1.3,2.08,15,15,0,0,1,.23,2.77V459.4H195V446.85a9.17,9.17,0,0,0-.16-1.73,2.52,2.52,0,0,0-.75-1.36,2.48,2.48,0,0,0-1.77-.57,3.76,3.76,0,0,0-2.48.92,3.33,3.33,0,0,0-1.12,2.74V459.4Zm23.95,0V435.19h12.5v2.64h-9.52v7.6h9v2.64h-9V459.4Zm26.92-18.18V459.4H234v-2.13h-.06a4.1,4.1,0,0,1-1.8,1.89,5.22,5.22,0,0,1-2.62.71,4.83,4.83,0,0,1-3.23-.91,3.67,3.67,0,0,1-1.3-2.08,14.07,14.07,0,0,1-.24-2.77V441.22h2.85v12.56a6.25,6.25,0,0,0,.48,2.58,2.13,2.13,0,0,0,2.18,1.07,3.82,3.82,0,0,0,2.49-.92,3.35,3.35,0,0,0,1.12-2.73V441.22Zm4.57,0v-5.28h2.85v5.28h3.15v2.24h-3.15v11.67a2.45,2.45,0,0,0,.39,1.57,1.87,1.87,0,0,0,1.48.46,5.66,5.66,0,0,0,.61,0l.64-.07v2.34a12.23,12.23,0,0,1-2.3.2,3.84,3.84,0,0,1-2.89-.85,4,4,0,0,1-.78-2.74V443.46h-2.65v-2.24Zm19.9,0V459.4h-2.71v-2.13h-.07a4,4,0,0,1-1.79,1.89,5.25,5.25,0,0,1-2.63.71,4.86,4.86,0,0,1-3.23-.91,3.67,3.67,0,0,1-1.3-2.08,14.07,14.07,0,0,1-.24-2.77V441.22h2.85v12.56a6.09,6.09,0,0,0,.49,2.58,2.13,2.13,0,0,0,2.18,1.07,3.82,3.82,0,0,0,2.49-.92,3.38,3.38,0,0,0,1.12-2.73V441.22Zm3.73,18.18V441.22h2.85v2.71h.07a7.34,7.34,0,0,1,1.63-2.35,3.23,3.23,0,0,1,2.29-.83,3.07,3.07,0,0,1,1.27.2v2.78a2.19,2.19,0,0,0-.33-.06,4.57,4.57,0,0,0-.52-.05c-.22,0-.45,0-.68,0a3.7,3.7,0,0,0-2.51,1.13,4.12,4.12,0,0,0-1.22,3.18v11.5Zm9.15-9.1a18.5,18.5,0,0,1,.58-4.9,6.78,6.78,0,0,1,2-3.39,5.84,5.84,0,0,1,3.94-1.26,5.78,5.78,0,0,1,3.93,1.26,6.58,6.58,0,0,1,2,3.38,19.09,19.09,0,0,1,.57,4.91,14.19,14.19,0,0,1-1.46,7q-1.47,2.6-5.07,2.6c-2.44,0-4.15-.87-5.11-2.6a14.31,14.31,0,0,1-1.45-7m6.48,7.34a2.88,2.88,0,0,0,1.81-.57,3.59,3.59,0,0,0,1.11-1.57,9,9,0,0,0,.55-2.25,23.08,23.08,0,0,0,.16-2.95,15.1,15.1,0,0,0-.77-5.36,2.82,2.82,0,0,0-2.86-1.95,2.62,2.62,0,0,0-2.14,1,5.76,5.76,0,0,0-1.07,2.57,21.94,21.94,0,0,0-.28,3.78,23.26,23.26,0,0,0,.27,3.78,5.52,5.52,0,0,0,1.05,2.59,2.64,2.64,0,0,0,2.17,1m17.7,1.76V435.19h3v21.56h9.84v2.65Zm15.12-18.18h2.85V459.4h-2.85Zm0-6h2.85v3.25h-2.85Zm9.42,15.12a19.56,19.56,0,0,0,.3,3.65,5.43,5.43,0,0,0,1.11,2.51,2.82,2.82,0,0,0,2.28,1,2.59,2.59,0,0,0,2.58-1.85,14.91,14.91,0,0,0,.73-5.27,15.12,15.12,0,0,0-.72-5.34,2.6,2.6,0,0,0-2.59-1.78,2.88,2.88,0,0,0-2.9,2,14,14,0,0,0-.79,5.15m-2.66,9.09V435.19H323v8.1H323a3.86,3.86,0,0,1,1.66-1.85,5,5,0,0,1,2.55-.69,4.43,4.43,0,0,1,2.85.89,5.55,5.55,0,0,1,1.7,2.32,12,12,0,0,1,.78,3,27.38,27.38,0,0,1,.2,3.34,17.26,17.26,0,0,1-.63,4.8,7.68,7.68,0,0,1-2,3.48,4.6,4.6,0,0,1-3.34,1.29,4.13,4.13,0,0,1-2.52-.82,3.46,3.46,0,0,1-1.41-1.88h-.08v2.23Zm15.69,0V441.22h2.85v2.71h.07a7.5,7.5,0,0,1,1.63-2.35,3.24,3.24,0,0,1,2.3-.83,3,3,0,0,1,1.26.2v2.78a2,2,0,0,0-.32-.06,4.82,4.82,0,0,0-.52-.05l-.69,0a3.72,3.72,0,0,0-2.51,1.13,4.12,4.12,0,0,0-1.22,3.18v11.5Zm12.51-11h6.48v-1a6.39,6.39,0,0,0-.72-3.14,2.55,2.55,0,0,0-2.43-1.3,2.59,2.59,0,0,0-2.09.88,4.34,4.34,0,0,0-1,1.95,8.81,8.81,0,0,0-.24,1.91Zm9.48,2.24h-9.58a27.8,27.8,0,0,0,.18,3.42,5.2,5.2,0,0,0,.94,2.49,2.72,2.72,0,0,0,2.38,1.08,2.56,2.56,0,0,0,1.93-.72,3.81,3.81,0,0,0,.92-1.63,7.77,7.77,0,0,0,.23-1.86h2.85a7.86,7.86,0,0,1-.55,2.7,6,6,0,0,1-1.92,2.63,5.6,5.6,0,0,1-3.63,1.11,5.41,5.41,0,0,1-5.66-4.1,17.76,17.76,0,0,1-.65-5.23,24.46,24.46,0,0,1,.26-3.67,10.43,10.43,0,0,1,.95-3.06,5.55,5.55,0,0,1,2-2.22,6,6,0,0,1,3.3-.84c2.48,0,4.12.81,4.9,2.43a14.5,14.5,0,0,1,1.18,6.31Zm13.55-.34a15,15,0,0,0,.73,5.32,2.61,2.61,0,0,0,2.6,1.8,3,3,0,0,0,2.31-.87,4.73,4.73,0,0,0,1.07-2.39,22.61,22.61,0,0,0,.27-3.86c0-4.75-1.21-7.12-3.65-7.12a2.61,2.61,0,0,0-2.6,1.78,15.08,15.08,0,0,0-.73,5.34M381,435.19V459.4h-2.72v-2.23h-.06a3.46,3.46,0,0,1-.77,1.32,4.53,4.53,0,0,1-1.41,1,4.28,4.28,0,0,1-1.76.37q-5.93,0-5.93-9.57a17.76,17.76,0,0,1,1.16-6.74,4.48,4.48,0,0,1,4.56-2.81,4.54,4.54,0,0,1,2.4.7,3.72,3.72,0,0,1,1.59,1.84h.09v-8.1Zm6.2,13.22h6.48v-1a6.39,6.39,0,0,0-.73-3.14,2.54,2.54,0,0,0-2.42-1.3,2.6,2.6,0,0,0-2.1.88,4.32,4.32,0,0,0-1,1.95,8.81,8.81,0,0,0-.24,1.91Zm9.47,2.24h-9.57a28,28,0,0,0,.17,3.42,5.22,5.22,0,0,0,1,2.49,2.71,2.71,0,0,0,2.37,1.08,2.54,2.54,0,0,0,1.93-.72,3.61,3.61,0,0,0,.92-1.63,7.3,7.3,0,0,0,.24-1.86h2.84a8.07,8.07,0,0,1-.54,2.7,6,6,0,0,1-1.93,2.63,5.58,5.58,0,0,1-3.63,1.11,6,6,0,0,1-3.59-1,5.84,5.84,0,0,1-2.06-3.08,17.4,17.4,0,0,1-.66-5.23,23.16,23.16,0,0,1,.27-3.67,10.43,10.43,0,0,1,.94-3.06,5.5,5.5,0,0,1,2-2.22,6,6,0,0,1,3.29-.84q3.73,0,4.9,2.43a14.5,14.5,0,0,1,1.18,6.31Zm23.05.43h3.12a15.06,15.06,0,0,1-.91,4.46,6.78,6.78,0,0,1-2.34,3.14,6.64,6.64,0,0,1-4.11,1.19,7.11,7.11,0,0,1-4-1.05,6.52,6.52,0,0,1-2.39-2.83,13.63,13.63,0,0,1-1.1-4,37,37,0,0,1-.29-4.74,33.34,33.34,0,0,1,.32-4.79,13.89,13.89,0,0,1,1.14-3.92,6.84,6.84,0,0,1,2.38-2.82,7,7,0,0,1,4-1.05q6.93,0,7.15,7.53h-3.12q-.11-5.08-4-5.09a3.6,3.6,0,0,0-3,1.3,7.39,7.39,0,0,0-1.35,3.51,36.59,36.59,0,0,0-.34,5.33c0,1.59.06,3,.17,4.13a12.65,12.65,0,0,0,.65,3.11,4.54,4.54,0,0,0,1.42,2.14,3.74,3.74,0,0,0,2.43.76,3.54,3.54,0,0,0,2.6-.91,4.65,4.65,0,0,0,1.26-2.29,17.7,17.7,0,0,0,.39-3.15m8.2-4.37H425.1a7.89,7.89,0,0,1,.62-3.4,3.86,3.86,0,0,1,2-1.94,8.63,8.63,0,0,1,3.53-.62,6.72,6.72,0,0,1,3.73.82,3.38,3.38,0,0,1,1.5,1.9,9.71,9.71,0,0,1,.28,2.49V456.1a7,7,0,0,0,0,.77.8.8,0,0,0,.25.48.79.79,0,0,0,.61.2,1.19,1.19,0,0,0,.67-.16v2a9.06,9.06,0,0,1-1.67.2,5.42,5.42,0,0,1-1.24-.12,1.67,1.67,0,0,1-.88-.62,3,3,0,0,1-.45-1.6H434a5.07,5.07,0,0,1-1.89,1.9,4.8,4.8,0,0,1-2.5.71,4.69,4.69,0,0,1-3.71-1.4,5.64,5.64,0,0,1-1.24-3.89c0-2.65,1.14-4.33,3.42-5l3.85-1.16a4.88,4.88,0,0,0,1.43-.64,1.34,1.34,0,0,0,.54-.76,6.08,6.08,0,0,0,.1-1.33,3,3,0,0,0-.33-1.46,2.14,2.14,0,0,0-1-.91,3.68,3.68,0,0,0-1.6-.31c-1.32,0-2.18.38-2.55,1.17a5.44,5.44,0,0,0-.57,2.39Zm5.94,7.47v-4.69a3,3,0,0,1-1.13.75c-.46.2-1.1.42-1.93.68a7.73,7.73,0,0,0-1.78.71A2.66,2.66,0,0,0,428,452.7a4,4,0,0,0-.34,1.8c0,2.09.86,3.14,2.58,3.14a3.64,3.64,0,0,0,2.55-1.05,3.26,3.26,0,0,0,1.11-2.41m6.72,5.22V441.22h2.84v2.71h.07a7.5,7.5,0,0,1,1.63-2.35,3.24,3.24,0,0,1,2.3-.83,3,3,0,0,1,1.26.2v2.78a2,2,0,0,0-.32-.06,4.82,4.82,0,0,0-.52-.05l-.69,0a3.72,3.72,0,0,0-2.51,1.13,4.12,4.12,0,0,0-1.22,3.18v11.5Zm10.2-18.18h2.84V459.4h-2.84Zm0-6h2.84v3.25h-2.84ZM460,448.41h6.47v-1a6.39,6.39,0,0,0-.72-3.14,2.54,2.54,0,0,0-2.42-1.3,2.6,2.6,0,0,0-2.1.88,4.44,4.44,0,0,0-1,1.95,9.4,9.4,0,0,0-.23,1.91Zm9.47,2.24h-9.57a28,28,0,0,0,.17,3.42,5.31,5.31,0,0,0,.94,2.49,2.74,2.74,0,0,0,2.38,1.08,2.54,2.54,0,0,0,1.93-.72,3.71,3.71,0,0,0,.92-1.63,7.29,7.29,0,0,0,.23-1.86h2.85a8.07,8.07,0,0,1-.54,2.7,6,6,0,0,1-1.93,2.63,5.58,5.58,0,0,1-3.63,1.11,6,6,0,0,1-3.59-1,5.84,5.84,0,0,1-2.06-3.08,17.4,17.4,0,0,1-.66-5.23,23.16,23.16,0,0,1,.27-3.67,10.43,10.43,0,0,1,.94-3.06,5.5,5.5,0,0,1,2-2.22,6,6,0,0,1,3.29-.84q3.72,0,4.91,2.43a14.66,14.66,0,0,1,1.17,6.31Zm13.76-4.1h-2.84a4.84,4.84,0,0,0-.6-2.69,2.34,2.34,0,0,0-2.09-.87,3.8,3.8,0,0,0-2,.56,2.39,2.39,0,0,0-.92,2.22,2.2,2.2,0,0,0,.37,1.26,2.61,2.61,0,0,0,1,.86,13.07,13.07,0,0,0,1.7.67l1.44.48a9.35,9.35,0,0,1,3.31,1.73,4.4,4.4,0,0,1,1.13,3.41,6.25,6.25,0,0,1-.74,3.15,4.81,4.81,0,0,1-2.06,1.91,7,7,0,0,1-3.06.63,7.56,7.56,0,0,1-3.47-.68,4.68,4.68,0,0,1-1.88-1.7,5.87,5.87,0,0,1-.75-2,13.62,13.62,0,0,1-.15-2.07h2.85a5.5,5.5,0,0,0,.75,3.06,2.9,2.9,0,0,0,2.65,1.15,4,4,0,0,0,1.28-.25,2.82,2.82,0,0,0,1.22-.93,3,3,0,0,0,.52-1.85,2.64,2.64,0,0,0-.61-1.81,3.71,3.71,0,0,0-1.28-1c-.44-.18-1.3-.5-2.56-.92-1-.37-1.64-.62-2-.77a4.81,4.81,0,0,1-1.14-.74,3.63,3.63,0,0,1-1-1.45,6,6,0,0,1-.36-2.19,4.45,4.45,0,0,1,1.63-3.72,6.44,6.44,0,0,1,4.17-1.3,6,6,0,0,1,3.65.92,3.89,3.89,0,0,1,1.53,2.14,11.62,11.62,0,0,1,.35,2.74M153.12,489.88h3.13a15.06,15.06,0,0,1-.91,4.46,6.85,6.85,0,0,1-2.34,3.14,6.66,6.66,0,0,1-4.11,1.19,7.11,7.11,0,0,1-4-1.05,6.58,6.58,0,0,1-2.39-2.83,13.72,13.72,0,0,1-1.1-4,37,37,0,0,1-.29-4.74,33.24,33.24,0,0,1,.32-4.79,13.73,13.73,0,0,1,1.14-3.93,6.8,6.8,0,0,1,2.38-2.81,7,7,0,0,1,4-1.05q6.93,0,7.15,7.53h-3.12q-.1-5.09-4-5.09a3.56,3.56,0,0,0-3,1.3,7.39,7.39,0,0,0-1.36,3.5,36.79,36.79,0,0,0-.33,5.34c0,1.59.06,3,.17,4.13a13.25,13.25,0,0,0,.64,3.11,4.63,4.63,0,0,0,1.43,2.14,3.74,3.74,0,0,0,2.43.76,3.58,3.58,0,0,0,2.6-.91,4.56,4.56,0,0,0,1.25-2.29,16,16,0,0,0,.39-3.15m8.21-4.37h-2.84a7.88,7.88,0,0,1,.63-3.4,3.86,3.86,0,0,1,2-1.94,8.45,8.45,0,0,1,3.53-.63,6.73,6.73,0,0,1,3.73.83,3.38,3.38,0,0,1,1.5,1.9,9.71,9.71,0,0,1,.28,2.49V494.9a5.32,5.32,0,0,0,0,.77.8.8,0,0,0,.25.48.77.77,0,0,0,.61.2,1.19,1.19,0,0,0,.67-.16v2a10,10,0,0,1-1.67.2,5.42,5.42,0,0,1-1.24-.12,1.64,1.64,0,0,1-.88-.62,3,3,0,0,1-.45-1.6h-.06a5.14,5.14,0,0,1-1.89,1.9,4.8,4.8,0,0,1-2.5.71,4.71,4.71,0,0,1-3.71-1.4,5.64,5.64,0,0,1-1.24-3.89c0-2.65,1.14-4.33,3.42-5l3.85-1.16a5,5,0,0,0,1.43-.65,1.32,1.32,0,0,0,.54-.75,6.14,6.14,0,0,0,.1-1.33,3,3,0,0,0-.33-1.46,2.14,2.14,0,0,0-1-.91,3.71,3.71,0,0,0-1.6-.32c-1.33,0-2.18.39-2.55,1.18a5.4,5.4,0,0,0-.57,2.38Zm5.94,7.47v-4.69a3.1,3.1,0,0,1-1.13.75,20.47,20.47,0,0,1-1.94.67,8.22,8.22,0,0,0-1.77.72,2.59,2.59,0,0,0-1.06,1.07,4,4,0,0,0-.34,1.8c0,2.09.86,3.14,2.57,3.14a3.63,3.63,0,0,0,2.55-1.06,3.2,3.2,0,0,0,1.12-2.4"/><path class="cls-10" d="M177,489.11a14,14,0,0,0,.79,5.15,2.87,2.87,0,0,0,2.89,2,2.5,2.5,0,0,0,2-.86,5.2,5.2,0,0,0,1-2.52,23.63,23.63,0,0,0,.29-4.07,19,19,0,0,0-.29-3.61,4.78,4.78,0,0,0-1-2.35,2.5,2.5,0,0,0-2-.83,3,3,0,0,0-2.32.87,4.74,4.74,0,0,0-1.09,2.39,22.53,22.53,0,0,0-.27,3.86m-2.66,15.06V480H177v2.23h.08a3.15,3.15,0,0,1,.74-1.3,4.2,4.2,0,0,1,1.42-1,4.12,4.12,0,0,1,1.77-.39,5,5,0,0,1,3.4,1.16,6.49,6.49,0,0,1,1.93,3.21,17.63,17.63,0,0,1,.61,4.86,20.53,20.53,0,0,1-.29,3.46,12.07,12.07,0,0,1-1,3.14,6.46,6.46,0,0,1-1.84,2.38,4.43,4.43,0,0,1-2.85.92,4,4,0,0,1-2.26-.69,4.09,4.09,0,0,1-1.54-1.85h-.07v8ZM190.18,480H193V498.2h-2.85Zm-.27-2.5,2.38-4.82h3.32l-3.67,4.82Zm7.87,2.5h-2.65v2.24h2.65v12.55a4,4,0,0,0,.78,2.74,3.84,3.84,0,0,0,2.89.85,13.13,13.13,0,0,0,2.3-.2v-2.34l-.64.06a3.82,3.82,0,0,1-.61,0,1.88,1.88,0,0,1-1.48-.46,2.47,2.47,0,0,1-.39-1.58V482.26h3.15V480h-3.15v-5.28h-2.85Zm19.91,0V498.2H215v-2.13h-.06a4.1,4.1,0,0,1-1.8,1.89,5.22,5.22,0,0,1-2.62.71,4.88,4.88,0,0,1-3.24-.91,3.78,3.78,0,0,1-1.3-2.08,14.13,14.13,0,0,1-.23-2.77V480h2.84v12.55a6.3,6.3,0,0,0,.49,2.59,2.15,2.15,0,0,0,2.18,1.07,3.78,3.78,0,0,0,2.49-.93,3.35,3.35,0,0,0,1.12-2.73V480Zm3.89-6h2.85V498.2h-2.85Zm5.87,15.12a18.87,18.87,0,0,1,.58-4.9,6.68,6.68,0,0,1,2.05-3.39,6.72,6.72,0,0,1,7.86,0,6.42,6.42,0,0,1,2,3.38,19,19,0,0,1,.58,4.91,14.21,14.21,0,0,1-1.47,7q-1.47,2.6-5.07,2.6t-5.11-2.6a14.45,14.45,0,0,1-1.45-7m6.48,7.34a2.85,2.85,0,0,0,1.82-.58,3.54,3.54,0,0,0,1.1-1.56,9.16,9.16,0,0,0,.55-2.25,23.08,23.08,0,0,0,.16-2.95,15.13,15.13,0,0,0-.76-5.36,2.84,2.84,0,0,0-2.87-2,2.6,2.6,0,0,0-2.13,1,5.6,5.6,0,0,0-1.07,2.57,20.75,20.75,0,0,0-.29,3.78,23.22,23.22,0,0,0,.27,3.77,5.73,5.73,0,0,0,1,2.6,2.64,2.64,0,0,0,2.17,1m29.4-6.56h3.13a15.06,15.06,0,0,1-.91,4.46,6.92,6.92,0,0,1-2.34,3.14,6.69,6.69,0,0,1-4.12,1.19,7.15,7.15,0,0,1-4-1.05,6.65,6.65,0,0,1-2.39-2.83,13.72,13.72,0,0,1-1.09-4,35.28,35.28,0,0,1-.29-4.74,33.33,33.33,0,0,1,.31-4.79,14.05,14.05,0,0,1,1.14-3.93,6.82,6.82,0,0,1,2.39-2.81,6.89,6.89,0,0,1,3.95-1.05q6.95,0,7.15,7.53h-3.11q-.12-5.09-4-5.09a3.56,3.56,0,0,0-3,1.3,7.29,7.29,0,0,0-1.36,3.5,36.79,36.79,0,0,0-.33,5.34c0,1.59.05,3,.16,4.13a13.23,13.23,0,0,0,.65,3.11,4.55,4.55,0,0,0,1.43,2.14,3.72,3.72,0,0,0,2.43.76,3.58,3.58,0,0,0,2.6-.91,4.56,4.56,0,0,0,1.25-2.29,16,16,0,0,0,.39-3.15m4.92-.78a18.87,18.87,0,0,1,.58-4.9,6.68,6.68,0,0,1,2.05-3.39,6.72,6.72,0,0,1,7.86,0,6.42,6.42,0,0,1,2,3.38,19,19,0,0,1,.58,4.91,14.21,14.21,0,0,1-1.47,7q-1.47,2.6-5.07,2.6t-5.11-2.6a14.33,14.33,0,0,1-1.45-7m6.48,7.34a2.85,2.85,0,0,0,1.82-.58,3.54,3.54,0,0,0,1.1-1.56,8.73,8.73,0,0,0,.55-2.25,23.08,23.08,0,0,0,.16-2.95,15.13,15.13,0,0,0-.76-5.36,2.84,2.84,0,0,0-2.87-2,2.64,2.64,0,0,0-2.14,1,5.6,5.6,0,0,0-1.06,2.57,21.69,21.69,0,0,0-.29,3.78,23.22,23.22,0,0,0,.27,3.77,5.73,5.73,0,0,0,1.05,2.6,2.66,2.66,0,0,0,2.17,1M284.36,474h2.85V498.2h-2.85Zm5.87,15.12a18.45,18.45,0,0,1,.58-4.9,6.74,6.74,0,0,1,2-3.39,5.85,5.85,0,0,1,3.94-1.27,5.79,5.79,0,0,1,3.93,1.27,6.54,6.54,0,0,1,2,3.38,19,19,0,0,1,.57,4.91,14.21,14.21,0,0,1-1.46,7q-1.47,2.6-5.07,2.6c-2.44,0-4.15-.87-5.11-2.6a14.33,14.33,0,0,1-1.45-7m6.48,7.34a2.82,2.82,0,0,0,1.81-.58,3.55,3.55,0,0,0,1.11-1.56,9.16,9.16,0,0,0,.55-2.25,23.08,23.08,0,0,0,.16-2.95,15.1,15.1,0,0,0-.77-5.36,2.82,2.82,0,0,0-2.86-2,2.61,2.61,0,0,0-2.14,1,5.6,5.6,0,0,0-1.07,2.57,21.78,21.78,0,0,0-.28,3.78,23.22,23.22,0,0,0,.27,3.77,5.52,5.52,0,0,0,1.05,2.6,2.64,2.64,0,0,0,2.17,1m9.73,1.76V480h2.72v2.13h.06a4.15,4.15,0,0,1,1.79-1.9,5.24,5.24,0,0,1,2.62-.71,4.36,4.36,0,0,1,2.56.68,3.78,3.78,0,0,1,1.38,2.21,5.56,5.56,0,0,1,1.79-2.08,4.27,4.27,0,0,1,2.51-.81,4.89,4.89,0,0,1,3.24.91,3.76,3.76,0,0,1,1.3,2.09,14.07,14.07,0,0,1,.24,2.77V498.2H323.8V485.65a6.64,6.64,0,0,0-.45-2.59,1.91,1.91,0,0,0-2-1.07,3.73,3.73,0,0,0-1.54.34,3.1,3.1,0,0,0-1.31,1.17,3.93,3.93,0,0,0-.53,2.15V498.2h-2.85V485.65a6.66,6.66,0,0,0-.45-2.62,1.93,1.93,0,0,0-2-1,3.78,3.78,0,0,0-1.55.34,3.1,3.1,0,0,0-1.31,1.17,3.93,3.93,0,0,0-.53,2.15V498.2Zm26.88-9.09a18.58,18.58,0,0,0,.31,3.64,5.31,5.31,0,0,0,1.1,2.52,2.82,2.82,0,0,0,2.28,1,2.61,2.61,0,0,0,2.58-1.85,14.91,14.91,0,0,0,.73-5.27,15.12,15.12,0,0,0-.72-5.34A2.6,2.6,0,0,0,337,482a2.88,2.88,0,0,0-2.9,2,14.18,14.18,0,0,0-.79,5.15m-2.66,9.09V474h2.85v8.11h.06a3.86,3.86,0,0,1,1.66-1.85,5,5,0,0,1,2.55-.7,4.38,4.38,0,0,1,2.85.9,5.55,5.55,0,0,1,1.7,2.32,12,12,0,0,1,.78,3,27.38,27.38,0,0,1,.2,3.34,17.32,17.32,0,0,1-.63,4.8,7.68,7.68,0,0,1-2,3.48,4.64,4.64,0,0,1-3.34,1.29,4.13,4.13,0,0,1-2.52-.82,3.44,3.44,0,0,1-1.41-1.89h-.08v2.24ZM346.52,480h2.85V498.2h-2.85Zm0-6h2.85v3.26h-2.85Zm9.16,11.53h-2.84a8,8,0,0,1,.62-3.4,3.88,3.88,0,0,1,2-1.94,8.43,8.43,0,0,1,3.52-.63,6.75,6.75,0,0,1,3.74.83,3.42,3.42,0,0,1,1.5,1.9,10.17,10.17,0,0,1,.28,2.49V494.9a5.32,5.32,0,0,0,0,.77.85.85,0,0,0,.24.48.8.8,0,0,0,.61.2,1.2,1.2,0,0,0,.68-.16v2a10.15,10.15,0,0,1-1.67.2,5.42,5.42,0,0,1-1.24-.12,1.64,1.64,0,0,1-.88-.62,2.93,2.93,0,0,1-.45-1.6h-.06a5.22,5.22,0,0,1-1.89,1.9,4.8,4.8,0,0,1-2.5.71,4.71,4.71,0,0,1-3.71-1.4,5.64,5.64,0,0,1-1.24-3.89c0-2.65,1.14-4.33,3.42-5l3.85-1.16a5,5,0,0,0,1.43-.65,1.32,1.32,0,0,0,.54-.75,6.14,6.14,0,0,0,.1-1.33,3,3,0,0,0-.33-1.46,2.14,2.14,0,0,0-1-.91,3.74,3.74,0,0,0-1.6-.32c-1.33,0-2.18.39-2.55,1.18a5.4,5.4,0,0,0-.57,2.38Zm5.94,7.47v-4.69a3.1,3.1,0,0,1-1.13.75c-.46.19-1.11.42-1.94.67a8.22,8.22,0,0,0-1.77.72,2.62,2.62,0,0,0-1.07,1.07,4,4,0,0,0-.33,1.8c0,2.09.86,3.14,2.57,3.14a3.63,3.63,0,0,0,2.55-1.06,3.2,3.2,0,0,0,1.12-2.4"/></g><g class="cls-11"><rect class="cls-12" x="73.82" y="161.39" width="91.44" height="54.56" transform="translate(-87.03 273.63) rotate(-80)"/></g><g class="cls-13"><rect class="cls-14" x="82.67" y="227.23" width="60.62" height="93.71" transform="translate(-37.04 18.39) rotate(-8)"/></g><g class="cls-15"><rect class="cls-16" x="122.82" y="300.26" width="86.16" height="91" transform="translate(-215.24 303.23) rotate(-58)"/></g><g class="cls-17"><rect class="cls-18" x="223.88" y="336.38" width="44" height="91.94" transform="translate(-140.7 621.52) rotate(-89)"/></g><g class="cls-19"><rect class="cls-20" x="281.75" y="314.03" width="93.21" height="84.76" transform="translate(-123.01 180.02) rotate(-26)"/></g><g class="cls-21"><rect class="cls-22" x="339.54" y="259.19" width="91.43" height="54.56" transform="translate(36.23 616.13) rotate(-80)"/></g><g class="cls-23"><rect class="cls-24" x="361.51" y="154.21" width="60.62" height="93.71" transform="matrix(0.99, -0.14, 0.14, 0.99, -24.17, 56.49)"/></g><g class="cls-25"><rect class="cls-26" x="295.81" y="83.89" width="86.16" height="90.99" transform="translate(49.58 348.22) rotate(-58)"/></g><g class="cls-27"><rect class="cls-28" x="237.31" y="47.23" width="43.21" height="91.93" transform="translate(161.21 350.44) rotate(-89)"/></g></svg>